<svg xmlns="http://www.w3.org/2000/svg" xmlns:xlink="http://www.w3.org/1999/xlink" width="368" height="192" viewBox="0 0 368 192"><defs><style>.a,.d{fill:none;}.a{stroke:red;}.b{clip-path:url(#a);}.c,.d{stroke-linecap:round;}.c{stroke-linejoin:round;}.d{stroke:#fff;}.e,.f{stroke:none;}.f{fill:#fff;}</style><clipPath id="a"><rect class="a" width="368" height="192" transform="translate(976 1048)"/></clipPath></defs><g class="b" transform="translate(-976 -1048)"><g transform="translate(480 1032)"><g class="c" transform="translate(-2693 -109)"><path class="e" d="M 3292.302490234375 311.130859375 L 3291.585693359375 310.4142150878906 L 3276.3134765625 295.1419982910156 L 3229.328857421875 302.9727783203125 L 3227.95458984375 303.2018127441406 L 3227.263427734375 301.9922790527344 L 3195.263427734375 245.9922790527344 L 3191.986328125 240.2570495605469 L 3197.894287109375 243.2111358642578 L 3213.894287109375 251.2111358642578 L 3214.005859375 251.2668151855469 L 3214.109375 251.3359069824219 L 3237 266.5963134765625 L 3257.61474609375 252.8531036376953 L 3219.75048828125 222.5617218017578 L 3218.488037109375 221.5517272949219 L 3219.211181640625 220.1055908203125 L 3243.211181640625 172.1055908203125 L 3243.356201171875 171.8152770996094 L 3243.585693359375 171.5857696533203 L 3267.585693359375 147.5857696533203 L 3268.171630859375 147 L 3269 147 L 3285 147 L 3288.737060546875 147 L 3286.6640625 150.1094055175781 L 3271.9208984375 172.2243347167969 L 3284.23779296875 178.3828735351562 L 3307.284912109375 139.9709930419922 L 3307.740234375 139.2123565673828 L 3308.607666015625 139.038818359375 L 3348.607666015625 131.038818359375 L 3348.912353515625 130.9779510498047 L 3349.220947265625 131.0122222900391 L 3421.220947265625 139.0122222900391 L 3422.60302734375 139.1658172607422 L 3422.940185546875 140.5149078369141 L 3430.692138671875 171.5228424072266 L 3468.69921875 186.7256164550781 L 3497.955078125 164.7836303710938 L 3484.60498046875 151.4335327148438 L 3469.962646484375 158.7546691894531 L 3478.66748046875 171.8954925537109 L 3481.87109375 176.7318572998047 L 3476.367431640625 174.8973693847656 L 3452.367431640625 166.8973693847656 L 3450.47021484375 166.2649078369141 L 3451.1025390625 164.3675384521484 L 3459.1025390625 140.3675384521484 L 3459.4833984375 139.2251892089844 L 3460.671142578125 139.0272216796875 L 3508.671142578125 131.0272216796875 L 3510.259033203125 130.7625427246094 L 3510.85693359375 132.2572326660156 L 3542.85693359375 212.2572326660156 L 3543.383056640625 213.5724029541016 L 3542.31689453125 214.5051422119141 L 3478.31689453125 270.505126953125 L 3476.908935546875 271.7372741699219 L 3475.585693359375 270.4142150878906 L 3460.60498046875 255.4335327148438 L 3445.894287109375 262.7888488769531 L 3443 264.2360534667969 L 3443 261 L 3443 222.7346038818359 L 3389.70703125 215.121337890625 L 3352.702392578125 252.1259765625 L 3372.846435546875 258.8406677246094 L 3403 243.7639312744141 L 3403 229 L 3403 224.1715850830078 L 3406.414306640625 227.5857696533203 L 3422.414306640625 243.5857696533203 L 3423.43359375 244.6050872802734 L 3422.788818359375 245.8944091796875 L 3398.788818359375 293.8944091796875 L 3398.326416015625 294.8194885253906 L 3397.30419921875 294.9767150878906 L 3293.30419921875 310.9767150878906 L 3292.302490234375 311.130859375 Z"/><path class="f" d="M 3293 309 L 3397 293 L 3421 245 L 3405 229 L 3405 245 L 3373 261 L 3349 253 L 3389 213 L 3445 221 L 3445 261 L 3461 253 L 3477 269 L 3541 213 L 3509 133 L 3461 141 L 3453 165 L 3477 173 L 3467.0478515625 157.9759979248047 L 3485 149 L 3501 165 L 3469 189 L 3429 173 L 3421 141 L 3349 133 L 3309 141 L 3285 181 L 3269 173 L 3285 149 L 3269 149 L 3245 173 L 3221 221 L 3261 253 L 3237 269 L 3213 253 L 3197 245 L 3229 301 L 3277 293 L 3293 309 M 3292.999755859375 313.0000610351562 C 3291.947265625 313.0000610351562 3290.927490234375 312.5842895507812 3290.171630859375 311.8283996582031 L 3275.627197265625 297.2839965820312 L 3229.657470703125 304.9455871582031 C 3229.4375 304.9822692871094 3229.217041015625 305.0001831054688 3228.9990234375 305.0001831054688 C 3227.580810546875 305.0002746582031 3226.2470703125 304.2445373535156 3225.527099609375 302.9845581054688 L 3193.527099609375 246.9845428466797 C 3192.652587890625 245.4541320800781 3192.8828125 243.5316314697266 3194.09423828125 242.2511291503906 C 3194.868408203125 241.4327697753906 3195.9267578125 240.9998474121094 3197.001220703125 240.9998474121094 C 3197.608154296875 240.9998474121094 3198.219970703125 241.1377868652344 3198.788818359375 241.4222717285156 L 3214.788818359375 249.4222717285156 C 3214.937255859375 249.4964599609375 3215.080810546875 249.5798187255859 3215.21875 249.6718139648438 L 3237 264.1925964355469 L 3254.229736328125 252.7061767578125 L 3218.501220703125 224.1234588623047 C 3217.0283203125 222.9452209472656 3216.578857421875 220.8981781005859 3217.42236328125 219.2111358642578 L 3241.42236328125 171.2111358642578 C 3241.614501953125 170.8265838623047 3241.867431640625 170.4755859375 3242.171630859375 170.1715850830078 L 3266.171630859375 146.1715850830078 C 3266.921630859375 145.4214019775391 3267.939208984375 145 3269 145 L 3285 145 C 3286.47509765625 145 3287.83056640625 145.8119506835938 3288.526611328125 147.1125946044922 C 3289.22265625 148.4131774902344 3289.146484375 149.9913635253906 3288.328125 151.2188110351562 L 3274.841552734375 171.4486541748047 L 3283.475830078125 175.7657470703125 L 3305.570068359375 138.9420013427734 C 3306.14990234375 137.9756317138672 3307.1103515625 137.2986755371094 3308.215576171875 137.0776824951172 L 3348.215576171875 129.0776824951172 C 3348.47412109375 129.0259399414062 3348.737060546875 128.9999847412109 3349 128.9999847412109 C 3349.1474609375 128.9999847412109 3349.294921875 129.0081329345703 3349.441650390625 129.0244598388672 L 3421.441650390625 137.0244598388672 C 3423.103515625 137.2090911865234 3424.47509765625 138.4078216552734 3424.880615234375 140.0298614501953 L 3432.384521484375 170.0456848144531 L 3468.3984375 184.4512176513672 L 3479.366455078125 176.2251892089844 C 3478.6796875 176.7290496826172 3477.848876953125 177.0001678466797 3476.999267578125 177.0002288818359 C 3476.577392578125 177.0002593994141 3476.15087890625 176.9333343505859 3475.735107421875 176.7947235107422 L 3451.735107421875 168.7947235107422 C 3449.639404296875 168.0961303710938 3448.506591796875 165.8308563232422 3449.205322265625 163.7350921630859 L 3457.205322265625 139.7350921630859 C 3457.673828125 138.3294982910156 3458.880859375 137.2980041503906 3460.342529296875 137.0544128417969 L 3508.342529296875 129.0544128417969 C 3508.563232421875 129.0175933837891 3508.783935546875 128.9996795654297 3509.001953125 128.9996795654297 C 3510.614501953125 128.9996795654297 3512.098876953125 129.9770812988281 3512.7138671875 131.5144500732422 L 3544.7138671875 211.5144500732422 C 3545.34423828125 213.0904083251953 3544.911376953125 214.8925933837891 3543.634033203125 216.0103149414062 L 3479.634033203125 272.0103149414062 C 3478.877685546875 272.6720886230469 3477.93798828125 272.9999389648438 3477.000732421875 273 C 3475.973876953125 273.0000915527344 3474.949951171875 272.6068420410156 3474.171630859375 271.8283996582031 L 3460.210205078125 257.8670349121094 L 3446.788818359375 264.5777282714844 C 3446.224365234375 264.8599548339844 3445.611572265625 264.9999694824219 3445.000244140625 265 C 3444.268798828125 265.0000305175781 3443.53955078125 264.7996215820312 3442.89697265625 264.402587890625 C 3441.7177734375 263.6737670898438 3441 262.3863220214844 3441 261 L 3441 224.4692077636719 L 3390.4140625 217.2426605224609 L 3356.40478515625 251.2519378662109 L 3372.693115234375 256.6813049316406 L 3401 242.5278472900391 L 3401 229 C 3401 227.3821411132812 3401.974609375 225.923583984375 3403.46923828125 225.3045043945312 C 3403.964111328125 225.0995330810547 3404.48388671875 224.9998931884766 3404.9990234375 224.9998931884766 C 3406.040283203125 224.9998931884766 3407.063232421875 225.4063110351562 3407.828369140625 226.1715850830078 L 3423.828369140625 242.1715850830078 C 3425.0458984375 243.3890075683594 3425.34765625 245.2489166259766 3424.57763671875 246.7888641357422 L 3400.57763671875 294.7888488769531 C 3399.99755859375 295.9492797851562 3398.890625 296.7562255859375 3397.608154296875 296.9534912109375 L 3293.608154296875 312.9534912109375 C 3293.4052734375 312.9847106933594 3293.201904296875 313.0000610351562 3292.999755859375 313.0000610351562 Z M 3472.87744140625 159.5333557128906 L 3480.334716796875 170.7910003662109 C 3481.27734375 172.2138214111328 3481.213134765625 174.0779113769531 3480.17529296875 175.4326324462891 C 3479.9580078125 175.7161712646484 3479.7080078125 175.9644165039062 3479.433837890625 176.1746368408203 L 3494.910400390625 164.5672149658203 L 3484.210205078125 153.8670349121094 L 3472.87744140625 159.5333557128906 Z"/></g><g class="c" transform="translate(-2693 -109)"><path class="e" d="M 3452.846435546875 311.1593322753906 L 3452.10546875 310.7888488769531 L 3436.71923828125 303.0957336425781 L 3397.392333984375 310.961181640625 L 3396.10546875 307.2111511230469 L 3427 291.763916015625 L 3427 285 L 3427 281.2629699707031 L 3430.109375 283.3359069824219 L 3453 298.5963134765625 L 3475.890625 283.3359069824219 L 3499.890625 267.3359069824219 L 3501.940673828125 265.9691772460938 L 3502.856689453125 268.2564697265625 L 3510.049560546875 286.21728515625 L 3529.6220703125 276.450439453125 L 3524.11279296875 270.9412231445312 C 3523.840576171875 270.935791015625 3523.44091796875 270.9314880371094 3522.857421875 270.9314880371094 C 3520.534423828125 270.9314880371094 3517.073974609375 270.9989318847656 3517.039306640625 270.9996032714844 L 3513.731689453125 271.0645751953125 L 3515.211181640625 268.1055603027344 L 3523.211181640625 252.1055603027344 L 3524.224365234375 250.0791931152344 L 3526.109375 251.3358917236328 L 3550.109375 267.3359069824219 L 3551.38037109375 268.1832580566406 L 3550.8974609375 269.6324462890625 L 3542.8974609375 293.6324462890625 L 3542.680419921875 294.283447265625 L 3542.109375 294.6640930175781 L 3518.109375 310.6640930175781 L 3517.420166015625 311.1236267089844 L 3516.607666015625 310.961181640625 L 3477.128662109375 303.0653381347656 L 3453.632568359375 310.8973693847656 L 3452.846435546875 311.1593322753906 Z"/><path class="f" d="M 3517 309 L 3541 293 L 3549 269 L 3525 253 L 3517 269 C 3517 269 3520.487060546875 268.9315185546875 3522.857421875 268.9315185546875 C 3524.04248046875 268.9315185546875 3524.94873046875 268.9486389160156 3525 269 L 3533 277 L 3509 288.9761962890625 L 3501 269 L 3477 285 L 3453 301 L 3429 285 L 3429 293 L 3397 309 L 3437 301 L 3453 309 L 3477 301 L 3517 309 M 3396.99755859375 313.00048828125 C 3395.319091796875 313.0005798339844 3393.779541015625 311.939453125 3393.216552734375 310.2981262207031 C 3392.566162109375 308.4026794433594 3393.418701171875 306.3184814453125 3395.211181640625 305.4223022460938 L 3425 290.5278625488281 L 3425 285 C 3425 283.5248107910156 3425.81201171875 282.1693725585938 3427.112548828125 281.4732971191406 C 3427.703857421875 281.1568298339844 3428.352783203125 281 3428.999755859375 281 C 3429.77587890625 281 3430.54931640625 281.2255554199219 3431.21875 281.6717834472656 L 3453 296.1925964355469 L 3474.78125 281.6717834472656 L 3498.78125 265.6717834472656 C 3499.44580078125 265.2288208007812 3500.21923828125 265 3501.000244140625 265 C 3501.397705078125 265 3501.79736328125 265.0592651367188 3502.185546875 265.1797790527344 C 3503.336669921875 265.5369873046875 3504.26513671875 266.3941345214844 3504.71337890625 267.5129089355469 L 3511.09912109375 283.4583740234375 L 3526.244140625 275.9009094238281 L 3523.275390625 272.9323425292969 C 3523.14892578125 272.9317932128906 3523.010009765625 272.9314880371094 3522.857421875 272.9314880371094 C 3520.552978515625 272.9314880371094 3517.113037109375 272.99853515625 3517.07861328125 272.9992370605469 C 3517.05224609375 272.999755859375 3517.02587890625 273 3516.999755859375 273 C 3515.62939453125 273.0000915527344 3514.35205078125 272.2979431152344 3513.6181640625 271.13623046875 C 3512.870361328125 269.9523620605469 3512.796142578125 268.463623046875 3513.42236328125 267.2111511230469 L 3521.42236328125 251.2111358642578 C 3521.935302734375 250.1849517822266 3522.864501953125 249.4284820556641 3523.973388671875 249.1340026855469 C 3524.3115234375 249.044189453125 3524.656494140625 248.9999847412109 3524.999755859375 248.9999847412109 C 3525.781982421875 248.9999847412109 3526.555419921875 249.2294921875 3527.21875 249.6717987060547 L 3551.21875 265.6717834472656 C 3552.7197265625 266.67236328125 3553.365234375 268.5536804199219 3552.794677734375 270.2649230957031 L 3544.794677734375 294.2649230957031 C 3544.513427734375 295.1087646484375 3543.958984375 295.8348083496094 3543.21875 296.3282165527344 L 3519.21875 312.3282165527344 C 3518.556884765625 312.7694396972656 3517.783935546875 313.0000305175781 3517 313.0000305175781 C 3516.738525390625 313.0000305175781 3516.475830078125 312.974365234375 3516.215576171875 312.9223327636719 L 3477.257080078125 305.1306457519531 L 3454.264892578125 312.7947387695312 C 3453.853271484375 312.9319458007812 3453.426025390625 313 3453 313 C 3452.384765625 313 3451.77197265625 312.8580627441406 3451.211181640625 312.5776977539062 L 3436.438720703125 305.1914672851562 L 3397.784423828125 312.9223327636719 C 3397.52099609375 312.9750061035156 3397.257568359375 313.00048828125 3396.99755859375 313.00048828125 Z"/></g><line class="d" x2="24" y2="24" transform="translate(544 112)"/><line class="d" y1="8" x2="56" transform="translate(608 184)"/><line class="d" y1="15" x2="9" transform="translate(612.5 43.5)"/><line class="d" y1="24" x2="25" transform="translate(805.5 112.5)"/><line class="d" x2="22" y2="4" transform="translate(797.5 188.5)"/><line class="d" x2="10" y2="10" transform="translate(801.5 39.5)"/><path class="d" d="M678.14,36.781l39.131,3.3,6.608,25.024-27.507-4.223V49.32h14.7l2.26,7.159h-6.294"/></g></g></svg>