<svg xmlns="http://www.w3.org/2000/svg" xmlns:xlink="http://www.w3.org/1999/xlink" width="136" height="152" viewBox="0 0 136 152"><defs><style>.a,.d{fill:none;}.a{stroke:red;}.b{clip-path:url(#a);}.c{stroke-linejoin:round;}.d{stroke:#fff;}.e,.f{stroke:none;}.f{fill:#fff;}</style><clipPath id="a"><rect class="a" width="152" height="136" transform="translate(2080 1088) rotate(90)"/></clipPath></defs><g class="b" transform="translate(-1944 -1088)"><g transform="translate(0 -8)"><g class="c" transform="translate(-1371 -1143)"><path class="e" d="M 3387 2385.0615234375 L 3386.514892578125 2384.940185546875 L 3354.514892578125 2376.940185546875 L 3353 2376.5615234375 L 3353 2375 L 3353 2367.828369140625 L 3347.255126953125 2362.083740234375 L 3337.585693359375 2352.414306640625 L 3337.44580078125 2352.274169921875 L 3337.3359375 2352.109375 L 3321.3359375 2328.109375 L 3320.426513671875 2326.7451171875 L 3321.585693359375 2325.585693359375 L 3328.56640625 2318.60498046875 L 3321.211181640625 2303.89453125 L 3317.843017578125 2297.158447265625 L 3324.109375 2301.3359375 L 3348.109375 2317.3359375 L 3348.274169921875 2317.44580078125 L 3348.414306640625 2317.585693359375 L 3354.4521484375 2323.623779296875 L 3360.421630859375 2311.684814453125 L 3337.890625 2296.6640625 L 3335.39453125 2295 L 3337.890625 2293.3359375 L 3361.44873046875 2277.630615234375 L 3377.211181640625 2246.10546875 L 3378.10546875 2244.316650390625 L 3379.89453125 2245.211181640625 L 3395.89453125 2253.211181640625 L 3396.49072265625 2253.50927734375 L 3396.788818359375 2254.10546875 L 3403 2266.52783203125 L 3409.211181640625 2254.10546875 L 3413 2255 L 3413 2270.171630859375 L 3420.414306640625 2277.585693359375 L 3421 2278.171630859375 L 3421 2279 L 3421 2294.171630859375 L 3428.414306640625 2301.585693359375 L 3429.53369140625 2302.705078125 L 3428.701171875 2304.0517578125 L 3424.40576171875 2311 L 3427.37255859375 2315.799072265625 L 3433.585693359375 2309.585693359375 L 3436.08349609375 2307.088134765625 L 3436.940185546875 2310.514892578125 L 3444.940185546875 2342.514892578125 L 3445.21484375 2343.613525390625 L 3444.414306640625 2344.414306640625 L 3428.414306640625 2360.414306640625 L 3428.184814453125 2360.643798828125 L 3427.89453125 2360.788818359375 L 3414.376220703125 2367.5478515625 L 3420.414306640625 2373.585693359375 L 3422.911865234375 2376.08349609375 L 3419.485107421875 2376.940185546875 L 3387.485107421875 2384.940185546875 L 3387 2385.0615234375 Z"/><path class="f" d="M 3387 2383 L 3419 2375 L 3411 2367 L 3427 2359 L 3443 2343 L 3435 2311 L 3427 2319 L 3422.054443359375 2311 L 3427 2303 L 3419 2295 L 3419 2279 L 3411 2271 L 3411 2255 L 3403 2271 L 3395 2255 L 3379 2247 L 3363 2279 L 3339 2295 L 3363 2311 L 3355 2327 L 3347 2319 L 3323 2303 L 3331 2319 L 3323 2327 L 3339 2351 L 3348.66943359375 2360.66943359375 L 3355 2367 L 3355 2375 L 3387 2383 M 3387 2387 C 3386.674072265625 2387 3386.348388671875 2386.960205078125 3386.02978515625 2386.880615234375 L 3354.02978515625 2378.880615234375 C 3352.249267578125 2378.435302734375 3351 2376.83544921875 3351 2375 L 3351 2368.656982421875 L 3345.841064453125 2363.497802734375 L 3336.171630859375 2353.828369140625 C 3335.9853515625 2353.64208984375 3335.81787109375 2353.43798828125 3335.671875 2353.21875 L 3319.671875 2329.21875 C 3318.6142578125 2327.63232421875 3318.8232421875 2325.519775390625 3320.171630859375 2324.171630859375 L 3326.133056640625 2318.210205078125 L 3319.42236328125 2304.788818359375 C 3318.611083984375 2303.16650390625 3318.9931640625 2301.20166015625 3320.352783203125 2300.001220703125 C 3321.10400390625 2299.338134765625 3322.050048828125 2299 3323.000732421875 2299 C 3323.770751953125 2299 3324.54345703125 2299.2216796875 3325.21875 2299.671875 L 3349.21875 2315.671875 C 3349.43798828125 2315.81787109375 3349.64208984375 2315.9853515625 3349.828369140625 2316.171630859375 L 3353.904296875 2320.247314453125 L 3357.843017578125 2312.369384765625 L 3336.78125 2298.328125 C 3335.66845703125 2297.58642578125 3335 2296.33740234375 3335 2295 C 3335 2293.66259765625 3335.66845703125 2292.41357421875 3336.78125 2291.671875 L 3359.8974609375 2276.260986328125 L 3375.42236328125 2245.211181640625 C 3376.123046875 2243.8095703125 3377.535888671875 2242.9990234375 3379.003173828125 2242.9990234375 C 3379.604248046875 2242.9990234375 3380.214599609375 2243.13525390625 3380.788818359375 2243.42236328125 L 3396.788818359375 2251.42236328125 C 3397.56298828125 2251.809326171875 3398.190673828125 2252.43701171875 3398.57763671875 2253.211181640625 L 3403 2262.0556640625 L 3407.42236328125 2253.211181640625 C 3408.11083984375 2251.833984375 3409.5107421875 2250.99951171875 3410.9990234375 2250.99951171875 C 3411.303955078125 2250.99951171875 3411.612060546875 2251.03466796875 3411.9189453125 2251.10693359375 C 3413.724609375 2251.533203125 3415 2253.144775390625 3415 2255 L 3415 2269.343017578125 L 3421.828369140625 2276.171630859375 C 3422.57861328125 2276.921630859375 3423 2277.939208984375 3423 2279 L 3423 2293.343017578125 L 3429.828369140625 2300.171630859375 C 3431.140380859375 2301.4833984375 3431.3779296875 2303.525146484375 3430.40234375 2305.103271484375 L 3426.757080078125 2311 L 3427.7451171875 2312.59814453125 L 3432.171630859375 2308.171630859375 C 3432.931884765625 2307.4111328125 3433.95361328125 2307 3435.000244140625 2307 C 3435.356201171875 2307 3435.715087890625 2307.047607421875 3436.067626953125 2307.145263671875 C 3437.45654296875 2307.52978515625 3438.531005859375 2308.6318359375 3438.880615234375 2310.02978515625 L 3446.880615234375 2342.02978515625 C 3447.221435546875 2343.39306640625 3446.822021484375 2344.8349609375 3445.828369140625 2345.828369140625 L 3429.828369140625 2361.828369140625 C 3429.5244140625 2362.13232421875 3429.17333984375 2362.385498046875 3428.788818359375 2362.57763671875 L 3417.752685546875 2368.095703125 L 3421.828369140625 2372.171630859375 C 3422.847412109375 2373.190673828125 3423.239501953125 2374.678955078125 3422.854736328125 2376.067626953125 C 3422.47021484375 2377.45654296875 3421.3681640625 2378.531005859375 3419.97021484375 2378.880615234375 L 3387.97021484375 2386.880615234375 C 3387.651611328125 2386.960205078125 3387.325927734375 2387 3387 2387 Z"/></g><g class="c" transform="translate(-1371 -1143)"><path class="e" d="M 3339.39501953125 2281.43359375 L 3338.10546875 2280.788818359375 L 3322.10546875 2272.788818359375 L 3319.623779296875 2271.5478515625 L 3321.585693359375 2269.585693359375 L 3329 2262.171630859375 L 3329 2247 L 3329 2242.171630859375 L 3332.414306640625 2245.585693359375 L 3348.414306640625 2261.585693359375 L 3349 2262.171630859375 L 3349 2263 L 3349 2271 L 3349 2271.828369140625 L 3348.414306640625 2272.414306640625 L 3340.414306640625 2280.414306640625 L 3339.39501953125 2281.43359375 Z"/><path class="f" d="M 3339 2279 L 3347 2271 L 3347 2263 L 3331 2247 L 3331 2263 L 3323 2271 L 3339 2279 M 3338.998779296875 2283 C 3338.3916015625 2283 3337.779541015625 2282.862060546875 3337.211181640625 2282.57763671875 L 3321.211181640625 2274.57763671875 C 3320.06103515625 2274.002685546875 3319.257568359375 2272.909912109375 3319.0517578125 2271.640625 C 3318.845703125 2270.37158203125 3319.262451171875 2269.080810546875 3320.171630859375 2268.171630859375 L 3327 2261.34326171875 L 3327 2247 C 3327 2245.382080078125 3327.974609375 2243.923583984375 3329.46923828125 2243.304443359375 C 3329.964111328125 2243.099609375 3330.48388671875 2243 3330.9990234375 2243 C 3332.040283203125 2243 3333.063232421875 2243.40625 3333.828369140625 2244.171630859375 L 3349.828369140625 2260.171630859375 C 3350.57861328125 2260.921630859375 3351 2261.939208984375 3351 2263 L 3351 2271 C 3351 2272.060791015625 3350.57861328125 2273.078369140625 3349.828369140625 2273.828369140625 L 3341.828369140625 2281.828369140625 C 3341.060302734375 2282.596435546875 3340.03662109375 2283 3338.998779296875 2283 Z"/></g><g class="c" transform="translate(-1371 -1143)"><path class="e" d="M 3436.788818359375 2287.89453125 L 3433 2287 L 3433 2271.828369140625 L 3425.585693359375 2264.414306640625 L 3424.171630859375 2263 L 3425.585693359375 2261.585693359375 L 3433.585693359375 2253.585693359375 L 3435.5478515625 2251.623779296875 L 3436.788818359375 2254.10546875 L 3444.788818359375 2270.10546875 L 3445.236083984375 2271 L 3444.788818359375 2271.89453125 L 3436.788818359375 2287.89453125 Z"/><path class="f" d="M 3435 2287 L 3443 2271 L 3435 2255 L 3427 2263 L 3435 2271 L 3435 2287 M 3435.0009765625 2291.00048828125 C 3434.696044921875 2291.00048828125 3434.387939453125 2290.96533203125 3434.0810546875 2290.89306640625 C 3432.275390625 2290.466796875 3431 2288.855224609375 3431 2287 L 3431 2272.65673828125 L 3424.171630859375 2265.828369140625 C 3422.609375 2264.266357421875 3422.609375 2261.733642578125 3424.171630859375 2260.171630859375 L 3432.171630859375 2252.171630859375 C 3432.927734375 2251.41552734375 3433.94775390625 2251 3434.999755859375 2251 C 3435.212890625 2251 3435.427001953125 2251.016845703125 3435.640625 2251.0517578125 C 3436.909912109375 2251.257568359375 3438.002685546875 2252.06103515625 3438.57763671875 2253.211181640625 L 3446.57763671875 2269.211181640625 C 3447.140869140625 2270.337158203125 3447.140869140625 2271.662841796875 3446.57763671875 2272.788818359375 L 3438.57763671875 2288.788818359375 C 3437.88916015625 2290.166015625 3436.4892578125 2291.00048828125 3435.0009765625 2291.00048828125 Z"/></g><path class="d" d="M3379,2375l-24-24,16-8-8-8,16-16,8-24,16,24,8,8,8,8-16,16,8,8-16,16" transform="translate(-1371 -1143)"/><path class="d" d="M3387,2367l-8-16,8-16,8,16Z" transform="translate(-1371 -1143)"/></g></g></svg>