<svg xmlns="http://www.w3.org/2000/svg" xmlns:xlink="http://www.w3.org/1999/xlink" width="288" height="136" viewBox="0 0 288 136"><defs><style>.a,.d{fill:none;}.a{stroke:red;}.b{clip-path:url(#a);}.c,.d{stroke-linecap:round;}.c{stroke-linejoin:round;}.d{stroke:#fff;}.e,.f{stroke:none;}.f{fill:#fff;}</style><clipPath id="a"><rect class="a" width="288" height="136" transform="translate(1376 1104)"/></clipPath></defs><g class="b" transform="translate(-1376 -1104)"><g class="c" transform="translate(-1725 523)"><path class="e" d="M 3301.099853515625 711 L 3301 711 L 3109 711 L 3108.367431640625 707.1026611328125 L 3155.919677734375 691.251953125 L 3171.585693359375 675.5858154296875 L 3171.919677734375 675.251953125 L 3172.367431640625 675.1026611328125 L 3195.58154296875 667.3646240234375 L 3203.211181640625 652.1055908203125 L 3204.4521484375 649.6236572265625 L 3206.414306640625 651.5858154296875 L 3237.540283203125 682.7117309570312 L 3283.19482421875 667.4935302734375 L 3290.5625 615.9207153320312 L 3247.820068359375 630.1681518554688 L 3254.01318359375 642.5541381835938 L 3276.367431640625 635.1026611328125 L 3281.8974609375 633.2593383789062 L 3278.6640625 638.109375 L 3262.6640625 662.109375 L 3262.0703125 663 L 3261 663 L 3245 663 L 3244.39453125 663 L 3243.890625 662.6641235351562 L 3195.890625 630.6641235351562 L 3193.313232421875 628.94580078125 L 3195.93994140625 627.3040161132812 L 3259.93994140625 587.3040161132812 L 3260.550537109375 586.92236328125 L 3261.264404296875 587.0175170898438 L 3381.264404296875 603.0175170898438 L 3383.811279296875 603.3571166992188 L 3382.85693359375 605.7427978515625 L 3352.810546875 680.8585815429688 L 3363.815185546875 675.3562622070312 L 3371.585693359375 667.5858154296875 L 3375 664.1715698242188 L 3375 669 L 3375 684.52783203125 L 3382.788818359375 700.1055908203125 L 3384.086669921875 702.7012939453125 L 3381.198974609375 702.9900512695312 L 3301.198974609375 710.9900512695312 L 3301.099853515625 711 Z"/><path class="f" d="M 3301 709 L 3381 701 L 3373 685 L 3373 669 L 3365 677 L 3349 685 L 3381 605 L 3261 589 L 3197 629 L 3245 661 L 3261 661 L 3277 637 L 3253 645 L 3245 629 L 3293 613 L 3285 669 L 3237 685 L 3205 653 L 3197 669 L 3173 677 L 3157 693 L 3109 709 L 3301 709 M 3301 713 L 3109 713 C 3107.0380859375 713 3105.365966796875 711.5772094726562 3105.0517578125 709.6407470703125 C 3104.7373046875 707.7042236328125 3105.8740234375 705.82568359375 3107.735107421875 705.2052612304688 L 3154.83935546875 689.5038452148438 L 3170.171630859375 674.1715698242188 C 3170.610595703125 673.7324829101562 3171.14599609375 673.4016723632812 3171.735107421875 673.2052612304688 L 3194.163330078125 665.7291870117188 L 3201.42236328125 651.211181640625 C 3201.997314453125 650.0610961914062 3203.090087890625 649.2576293945312 3204.359375 649.0516357421875 C 3204.572998046875 649.0169677734375 3204.787353515625 648.9999389648438 3205.000244140625 648.9999389648438 C 3206.05224609375 648.9999389648438 3207.072265625 649.4154052734375 3207.828369140625 650.1715698242188 L 3238.080322265625 680.4235229492188 L 3281.389892578125 665.9869995117188 L 3288.125 618.8414306640625 L 3250.64013671875 631.3363037109375 L 3255.026123046875 640.1082153320312 L 3275.735107421875 633.2052612304688 C 3276.150634765625 633.0667114257812 3276.577392578125 632.999755859375 3276.99951171875 632.999755859375 C 3278.222900390625 632.999755859375 3279.407470703125 633.5621948242188 3280.1787109375 634.572021484375 C 3281.216064453125 635.9300537109375 3281.276123046875 637.7969360351562 3280.328125 639.2188110351562 L 3264.328125 663.2188110351562 C 3263.58642578125 664.3316040039062 3262.33740234375 665 3261 665 L 3245 665 C 3244.210205078125 665 3243.438232421875 664.7662353515625 3242.78125 664.3281860351562 L 3194.78125 632.3281860351562 C 3193.651123046875 631.5747680664062 3192.98046875 630.29931640625 3193.00048828125 628.941162109375 C 3193.020263671875 627.5830688476562 3193.728271484375 626.327880859375 3194.8798828125 625.6079711914062 L 3258.8798828125 585.6079711914062 C 3259.518798828125 585.2088623046875 3260.25390625 585 3261 585 C 3261.176025390625 585 3261.3525390625 585.0115966796875 3261.528564453125 585.0350952148438 L 3381.528564453125 601.0350952148438 C 3382.751708984375 601.1981811523438 3383.8310546875 601.91650390625 3384.45361328125 602.9817504882812 C 3385.075927734375 604.0470581054688 3385.172119140625 605.3399658203125 3384.7138671875 606.485595703125 L 3356.621337890625 676.71728515625 L 3362.630615234375 673.7125854492188 L 3370.171630859375 666.1715698242188 C 3370.936767578125 665.4063720703125 3371.9599609375 664.9998779296875 3373.0009765625 664.9998779296875 C 3373.51611328125 664.9998779296875 3374.035888671875 665.0994873046875 3374.53076171875 665.3045043945312 C 3376.025390625 665.9236450195312 3377 667.3821411132812 3377 669 L 3377 684.0557861328125 L 3384.57763671875 699.211181640625 C 3385.166015625 700.3878173828125 3385.13818359375 701.7786254882812 3384.503173828125 702.9307861328125 C 3383.8681640625 704.0830078125 3382.70703125 704.8492431640625 3381.39794921875 704.9801635742188 L 3301.39794921875 712.9801635742188 C 3301.265869140625 712.993408203125 3301.1328125 713 3301 713 Z"/></g><g class="c" transform="translate(-1725 523)"><path class="e" d="M 3132.161376953125 663.489501953125 L 3131.284912109375 662.0289916992188 L 3107.284912109375 622.0289916992188 L 3106.593017578125 620.8758544921875 L 3107.39990234375 619.7999877929688 L 3131.39990234375 587.7999877929688 L 3132.4013671875 586.4646606445312 L 3133.89453125 587.2111206054688 L 3165.28076171875 602.9042358398438 L 3204.607666015625 595.038818359375 L 3206.029052734375 598.7149658203125 L 3166.029052734375 622.7149658203125 L 3165.318603515625 623.1412353515625 L 3164.514892578125 622.9403076171875 L 3135 615.5615234375 L 3135 643 L 3147 643 L 3147 632.832763671875 L 3147 629.5764770507812 L 3149.904296875 631.0488891601562 L 3173.904296875 643.2161254882812 L 3177.847412109375 645.2151489257812 L 3173.74267578125 646.85693359375 L 3133.74267578125 662.85693359375 L 3132.161376953125 663.489501953125 Z"/><path class="f" d="M 3133 589 L 3109 621 L 3133 661 L 3173 645 L 3149 632.832763671875 L 3149 645 L 3133 645 L 3133 613 L 3165 621 L 3205 597 L 3165 605 L 3133 589 M 3133.001953125 584.9996948242188 C 3133.606689453125 584.9996948242188 3134.218017578125 585.1368408203125 3134.788818359375 585.4223022460938 L 3165.561279296875 600.8085327148438 L 3204.215576171875 593.0776977539062 C 3204.478759765625 593.0250244140625 3204.7421875 592.9995727539062 3205.001953125 592.9995727539062 C 3206.626708984375 592.9994506835938 3208.1259765625 593.9931030273438 3208.73095703125 595.5576171875 C 3209.4326171875 597.3724365234375 3208.726318359375 599.4288940429688 3207.057861328125 600.4299926757812 L 3167.057861328125 624.4299926757812 C 3166.43115234375 624.8060913085938 3165.718994140625 625 3165 625 C 3164.675537109375 625 3164.349853515625 624.9605712890625 3164.02978515625 624.8805541992188 L 3137 618.1231079101562 L 3137 641 L 3145 641 L 3145 632.832763671875 C 3145 631.4425048828125 3145.721923828125 630.1519775390625 3146.906494140625 629.42431640625 C 3147.546630859375 629.0311279296875 3148.272705078125 628.8328247070312 3149.000244140625 628.832763671875 C 3149.618896484375 628.8327026367188 3150.23876953125 628.9761352539062 3150.808837890625 629.2650756835938 L 3174.808837890625 641.4323120117188 C 3176.2099609375 642.1427612304688 3177.065673828125 643.6077270507812 3176.99609375 645.1773681640625 C 3176.926513671875 646.7469482421875 3175.9443359375 648.13037109375 3174.485595703125 648.7139282226562 L 3134.485595703125 664.7139282226562 C 3134.0009765625 664.9077758789062 3133.497802734375 665.00048828125 3133.00146484375 665.00048828125 C 3131.630859375 665.00048828125 3130.3115234375 664.2938842773438 3129.570068359375 663.0579833984375 L 3105.570068359375 623.0579833984375 C 3104.7333984375 621.6633911132812 3104.82421875 619.9010620117188 3105.800048828125 618.5999755859375 L 3129.800048828125 586.5999755859375 C 3130.576904296875 585.5641479492188 3131.775634765625 584.9996948242188 3133.001953125 584.9996948242188 Z"/></g><line class="d" y1="8" x2="28" transform="translate(1528 1200)"/><line class="d" y1="16" x2="8" transform="translate(1392 1128)"/><line class="d" y1="8" x2="29" transform="translate(1520 1136)"/><line class="d" x2="10" y2="8" transform="translate(1504 1168)"/><line class="d" x2="40" transform="translate(1456 1227)"/><path class="d" d="M1628.811,1176,1640,1136l-24-2.766V1160l16-8v-8l-8,3.036"/></g></svg>