<svg xmlns="http://www.w3.org/2000/svg" xmlns:xlink="http://www.w3.org/1999/xlink" width="192" height="224" viewBox="0 0 192 224"><defs><style>.a,.d{fill:none;}.a{stroke:red;}.b{clip-path:url(#a);}.c{stroke-linecap:round;stroke-linejoin:round;}.d{stroke:#fff;}.e,.f{stroke:none;}.f{fill:#fff;}</style><clipPath id="a"><rect class="a" width="224" height="192" transform="translate(1912 1016) rotate(90)"/></clipPath></defs><g class="b" transform="translate(-1720 -1016)"><g transform="translate(0 -8)"><g class="c" transform="translate(-1363 -1135)"><path class="e" d="M 3212.39013671875 2377 L 3212.000244140625 2377 L 3165.000244140625 2377 L 3164.12451171875 2377 L 3163.530517578125 2376.3564453125 L 3151.83740234375 2363.68896484375 L 3127.257568359375 2353.85693359375 L 3126.932861328125 2353.72705078125 L 3126.671630859375 2353.494873046875 L 3117.847900390625 2345.651611328125 L 3090.055908203125 2330.762939453125 L 3088.1708984375 2329.753173828125 L 3089.30419921875 2327.93994140625 L 3098.74658203125 2312.832275390625 L 3089.166015625 2290.79736328125 L 3086.765869140625 2285.27685546875 L 3091.992431640625 2288.263427734375 L 3119.531494140625 2304 L 3126.83056640625 2304 L 3134.4541015625 2290.44677734375 L 3099.695068359375 2260.515625 L 3098.7958984375 2259.7412109375 L 3099.044677734375 2258.5810546875 L 3105.044677734375 2230.5810546875 L 3106.2392578125 2225.005859375 L 3108.7890625 2230.10546875 L 3116.442138671875 2245.411865234375 L 3128.71826171875 2250.13330078125 L 3132.0234375 2251.404541015625 L 3129.22802734375 2253.57861328125 L 3123.30126953125 2258.1884765625 L 3145.154296875 2264.663330078125 L 3153.626708984375 2251.95458984375 L 3135.295166015625 2222.045166015625 L 3134.571533203125 2220.86474609375 L 3135.421630859375 2219.772216796875 L 3177.421630859375 2165.772216796875 L 3178.69140625 2164.139404296875 L 3180.280517578125 2165.463623046875 L 3228.280517578125 2205.463623046875 L 3229.67578125 2206.626220703125 L 3228.652587890625 2208.126708984375 L 3214.3603515625 2229.088623046875 L 3227.4296875 2251.7421875 L 3232.566650390625 2246.60498046875 L 3225.21142578125 2231.89453125 L 3224.566650390625 2230.60498046875 L 3225.5859375 2229.585693359375 L 3241.5859375 2213.585693359375 L 3256.7119140625 2198.459716796875 L 3249.102783203125 2175.63232421875 L 3252.41455078125 2173.585693359375 L 3260.41455078125 2181.585693359375 L 3260.748291015625 2181.919677734375 L 3260.897705078125 2182.36767578125 L 3268.897705078125 2206.36767578125 L 3269.129150390625 2207.0625 L 3268.857177734375 2207.74267578125 L 3253.2900390625 2246.66064453125 L 3268.56201171875 2265.750732421875 L 3269.210205078125 2266.56103515625 L 3268.9208984375 2267.5576171875 L 3250.9208984375 2329.5576171875 L 3250.79736328125 2329.9833984375 L 3250.50537109375 2330.31689453125 L 3237.443603515625 2345.244873046875 L 3239.83984375 2349.438232421875 L 3256.18798828125 2342.17236328125 L 3261.2822265625 2339.908203125 L 3258.7890625 2344.89453125 L 3250.7890625 2360.89453125 L 3250.451416015625 2361.56982421875 L 3249.751708984375 2361.853515625 L 3212.751708984375 2376.853515625 L 3212.39013671875 2377 Z"/><path class="f" d="M 3212.000244140625 2375 L 3249.000244140625 2360 L 3257.000244140625 2344 L 3239.000244140625 2352 L 3235.000244140625 2345 L 3249.000244140625 2329 L 3267.000244140625 2267 L 3251.000244140625 2247 L 3267.000244140625 2207 L 3259.000244140625 2183 L 3251.000244140625 2175 L 3259.000244140625 2199 L 3243.000244140625 2215 L 3227.000244140625 2231 L 3235.000244140625 2247 L 3227.000244140625 2255 L 3212.000244140625 2229 L 3227.000244140625 2207 L 3179.000244140625 2167 L 3137.000244140625 2221 L 3156.000244140625 2252 L 3146.000244140625 2267 L 3119.000244140625 2259 L 3128.000244140625 2252 L 3115.000244140625 2247 L 3107.000244140625 2231 L 3101.000244140625 2259 L 3137.000244140625 2290 L 3128.000244140625 2306 L 3119.000244140625 2306 L 3091.000244140625 2290 L 3101.000244140625 2313 L 3091.000244140625 2329 L 3119.000244140625 2344 L 3128.000244140625 2352 L 3153.000244140625 2362 L 3165.000244140625 2375 L 3212.000244140625 2375 M 3212.000244140625 2379 L 3165.000244140625 2379 C 3163.8837890625 2379 3162.818359375 2378.533447265625 3162.06103515625 2377.713134765625 L 3150.6748046875 2365.3779296875 L 3126.5146484375 2355.7138671875 C 3126.085205078125 2355.5419921875 3125.6884765625 2355.297119140625 3125.3427734375 2354.98974609375 L 3116.6953125 2347.302978515625 L 3089.111328125 2332.52587890625 C 3088.13525390625 2332.003173828125 3087.419677734375 2331.09912109375 3087.135009765625 2330.029052734375 C 3086.85009765625 2328.959228515625 3087.021484375 2327.81884765625 3087.608154296875 2326.8798828125 L 3096.49267578125 2312.664794921875 L 3087.33203125 2291.594970703125 C 3086.644775390625 2290.0146484375 3087.047119140625 2288.171875 3088.330078125 2287.021728515625 C 3089.08203125 2286.347412109375 3090.037841796875 2286 3091.001220703125 2286 C 3091.681396484375 2286 3092.365478515625 2286.173095703125 3092.98486328125 2286.527099609375 L 3120.0625 2302 L 3125.660888671875 2302 L 3131.908203125 2290.893798828125 L 3098.39013671875 2262.031005859375 C 3097.281494140625 2261.076416015625 3096.782470703125 2259.592529296875 3097.089111328125 2258.161865234375 L 3103.089111328125 2230.161865234375 C 3103.445068359375 2228.500732421875 3104.811279296875 2227.245849609375 3106.49658203125 2227.03173828125 C 3106.66552734375 2227.010498046875 3106.83447265625 2226.999755859375 3107.001708984375 2226.999755859375 C 3108.50146484375 2226.999755859375 3109.89453125 2227.84423828125 3110.577880859375 2229.211181640625 L 3117.884033203125 2243.823486328125 L 3129.43603515625 2248.2666015625 C 3130.78271484375 2248.784423828125 3131.745849609375 2249.9873046875 3131.957275390625 2251.414306640625 C 3132.16845703125 2252.841552734375 3131.5947265625 2254.271728515625 3130.4560546875 2255.157470703125 L 3127.602294921875 2257.376953125 L 3144.308349609375 2262.326904296875 L 3151.253173828125 2251.909423828125 L 3133.58984375 2223.09033203125 C 3132.719482421875 2221.670166015625 3132.820068359375 2219.859130859375 3133.8427734375 2218.544189453125 L 3175.8427734375 2164.544189453125 C 3176.508544921875 2163.6884765625 3177.4931640625 2163.139404296875 3178.571044921875 2163.023193359375 C 3178.71435546875 2163.007568359375 3178.857666015625 2163 3179.000244140625 2163 C 3179.931640625 2163 3180.838623046875 2163.3251953125 3181.56103515625 2163.927001953125 L 3229.56103515625 2203.927001953125 C 3231.1435546875 2205.245849609375 3231.4658203125 2207.55126953125 3230.30517578125 2209.25341796875 L 3216.720458984375 2229.177490234375 L 3227.859130859375 2248.484375 L 3230.13330078125 2246.210205078125 L 3223.422607421875 2232.788818359375 C 3222.652587890625 2231.2490234375 3222.954345703125 2229.388916015625 3224.171875 2228.171630859375 L 3240.171875 2212.171630859375 L 3254.423828125 2197.919677734375 L 3247.20556640625 2176.264892578125 C 3246.618896484375 2174.5048828125 3247.3193359375 2172.57275390625 3248.897216796875 2171.597412109375 C 3249.546875 2171.19580078125 3250.275390625 2171 3250.9990234375 2171 C 3252.032958984375 2171 3253.056884765625 2171.39990234375 3253.82861328125 2172.171630859375 L 3261.82861328125 2180.171630859375 C 3262.267822265625 2180.610595703125 3262.5986328125 2181.14599609375 3262.794921875 2181.735107421875 L 3270.794921875 2205.735107421875 C 3271.09423828125 2206.632568359375 3271.0654296875 2207.607177734375 3270.714111328125 2208.485595703125 L 3255.579833984375 2246.3212890625 L 3270.123779296875 2264.501220703125 C 3270.936767578125 2265.517333984375 3271.204345703125 2266.865478515625 3270.841552734375 2268.115234375 L 3252.841552734375 2330.115234375 C 3252.6787109375 2330.676025390625 3252.39501953125 2331.194580078125 3252.010498046875 2331.634033203125 L 3239.886962890625 2345.489501953125 L 3240.679443359375 2346.87646484375 L 3255.375732421875 2340.3447265625 C 3255.898193359375 2340.112548828125 3256.451171875 2339.999755859375 3256.999267578125 2339.999755859375 C 3258.0693359375 2339.999755859375 3259.120849609375 2340.42919921875 3259.89208984375 2341.236572265625 C 3261.05859375 2342.457275390625 3261.3330078125 2344.27880859375 3260.577880859375 2345.788818359375 L 3252.577880859375 2361.788818359375 C 3252.142822265625 2362.659423828125 3251.405029296875 2363.34130859375 3250.503173828125 2363.70703125 L 3213.503173828125 2378.70703125 C 3213.025634765625 2378.900390625 3212.515380859375 2379 3212.000244140625 2379 Z"/></g><g class="c" transform="translate(-1371.316 -1135)"><path class="e" d="M 3121.31591796875 2229.60546875 L 3121.31591796875 2223 L 3121.31591796875 2201 L 3115.31591796875 2201 L 3114.487548828125 2201 L 3113.901611328125 2200.414306640625 L 3097.901611328125 2184.414306640625 L 3094.487548828125 2181 L 3099.31591796875 2181 L 3114.079833984375 2181 L 3121.527099609375 2166.10546875 L 3123.31591796875 2162.52783203125 L 3125.104736328125 2166.10546875 L 3132.21044921875 2180.316650390625 L 3146.42138671875 2173.211181640625 L 3148.730224609375 2176.414306640625 L 3134.144287109375 2191 L 3140.730224609375 2197.585693359375 L 3141.889404296875 2198.7451171875 L 3140.97998046875 2200.109375 L 3124.97998046875 2224.109375 L 3121.31591796875 2229.60546875 Z"/><path class="f" d="M 3123.31591796875 2167 L 3115.31591796875 2183 L 3099.31591796875 2183 L 3115.31591796875 2199 L 3123.31591796875 2199 L 3123.31591796875 2223 L 3139.31591796875 2199 L 3131.31591796875 2191 L 3147.31591796875 2175 L 3131.31591796875 2183 L 3123.31591796875 2167 M 3123.31591796875 2163 C 3124.8310546875 2163 3126.216064453125 2163.85595703125 3126.8935546875 2165.211181640625 L 3133.104736328125 2177.633544921875 L 3145.527099609375 2171.42236328125 C 3146.09814453125 2171.13671875 3146.709716796875 2170.999755859375 3147.313720703125 2170.999755859375 C 3148.565673828125 2170.99951171875 3149.787109375 2171.587646484375 3150.560791015625 2172.6611328125 C 3151.7080078125 2174.252685546875 3151.531494140625 2176.441162109375 3150.144287109375 2177.828369140625 L 3136.97265625 2191 L 3142.144287109375 2196.171630859375 C 3143.49267578125 2197.519775390625 3143.701904296875 2199.63232421875 3142.64404296875 2201.21875 L 3126.64404296875 2225.21875 C 3125.888427734375 2226.352294921875 3124.6279296875 2227.000244140625 3123.315673828125 2227.000244140625 C 3122.929931640625 2227.000244140625 3122.5400390625 2226.9443359375 3122.15673828125 2226.828369140625 C 3120.4697265625 2226.317626953125 3119.31591796875 2224.7626953125 3119.31591796875 2223 L 3119.31591796875 2203 L 3115.31591796875 2203 C 3114.255126953125 2203 3113.237548828125 2202.57861328125 3112.487548828125 2201.828369140625 L 3096.487548828125 2185.828369140625 C 3095.343505859375 2184.684326171875 3095.001220703125 2182.9638671875 3095.620361328125 2181.46923828125 C 3096.239501953125 2179.974609375 3097.697998046875 2179 3099.31591796875 2179 L 3112.84375 2179 L 3119.73828125 2165.211181640625 C 3120.415771484375 2163.85595703125 3121.80078125 2163 3123.31591796875 2163 Z"/></g><path class="d" d="M3159.188,2363.481l-28-31,18-31,19-8-9-23,18-23,19,23,28,23-19,23,19,16-28,31" transform="translate(-1356.688 -1137.981)"/><path class="d" d="M3164.4,2364.963l-9-24,9-23,18-7-9-23,19,15-10,23,10,8-10,31" transform="translate(-1352.896 -1139.463)"/><g class="c"><path class="e" d="M 1874 1060.828369140625 L 1870.585815429688 1057.414184570312 L 1854.585815429688 1041.414184570312 L 1853.171630859375 1040 L 1854.585815429688 1038.585815429688 L 1862.585815429688 1030.585815429688 L 1864 1029.171630859375 L 1865.414184570312 1030.585815429688 L 1873.414184570312 1038.585815429688 L 1874 1039.171630859375 L 1874 1040 L 1874 1056 L 1874 1060.828369140625 Z"/><path class="f" d="M 1872 1056 L 1872 1040 L 1864 1032 L 1856 1040 L 1872 1056 M 1872.000854492188 1060.000122070312 C 1870.959838867188 1060.000122070312 1869.936889648438 1059.59375 1869.171630859375 1058.828369140625 L 1853.171630859375 1042.828369140625 C 1851.609497070312 1041.266357421875 1851.609497070312 1038.733642578125 1853.171630859375 1037.171630859375 L 1861.171630859375 1029.171630859375 C 1861.95263671875 1028.390502929688 1862.976318359375 1028 1864 1028 C 1865.023681640625 1028 1866.04736328125 1028.390502929688 1866.828369140625 1029.171630859375 L 1874.828369140625 1037.171630859375 C 1875.57861328125 1037.921752929688 1876 1038.939086914062 1876 1040 L 1876 1056 C 1876 1057.617797851562 1875.025390625 1059.076416015625 1873.53076171875 1059.695556640625 C 1873.035888671875 1059.900512695312 1872.51611328125 1060.000122070312 1872.000854492188 1060.000122070312 Z"/></g></g></g></svg>