<svg xmlns="http://www.w3.org/2000/svg" xmlns:xlink="http://www.w3.org/1999/xlink" width="248" height="304" viewBox="0 0 248 304"><defs><style>.a,.d{fill:none;}.a{stroke:red;}.b{clip-path:url(#a);}.c,.d{stroke-linecap:round;}.c{stroke-linejoin:round;}.d{stroke:#fff;}.e,.f{stroke:none;}.f{fill:#fff;}</style><clipPath id="a"><rect class="a" width="248" height="304" transform="translate(648 928)"/></clipPath></defs><g class="b" transform="translate(-648 -928)"><g transform="translate(-56 960)"><g transform="translate(6.023 18)"><g class="c" transform="translate(2081 75)"><path class="e" d="M -1336.437377929688 164.4141082763672 L -1368.436767578125 132.4136810302734 L -1368.828491210938 132.0219879150391 L -1368.962890625 131.4845581054688 L -1376.963012695312 99.48506164550781 L -1377.20947265625 98.4991455078125 L -1376.558471679688 97.71875762939453 L -1357.21337890625 74.53131103515625 L -1360.350830078125 63.55016708374023 L -1375.990112304688 54.90718078613281 L -1379.157592773438 53.15664291381836 L -1375.989990234375 51.40621948242188 L -1365.480102539062 45.59833908081055 L -1372.9228515625 19.54937362670898 L -1373.031127929688 19.17048835754395 L -1372.987548828125 18.77883338928223 L -1365.185546875 -51.3745002746582 L -1372.551147460938 -53.20085906982422 L -1376.063842773438 -54.07185745239258 L -1373.457275390625 -56.58255004882812 L -1363.544555664062 -66.13066864013672 L -1356.451782226562 -129.9083557128906 L -1356.25390625 -131.6872863769531 L -1354.463989257812 -131.6872863769531 L -1305.012573242188 -131.6872863769531 L -1302.50390625 -131.6872863769531 L -1303.062866210938 -129.2416229248047 L -1326.89013671875 -25.00048828125 L -1313.967529296875 -17.21282005310059 L -1311.063842773438 -15.46293544769287 L -1313.999877929688 -13.76778125762939 L -1331.807983398438 -3.485845565795898 L -1336.9248046875 18.89920997619629 L -1321.102661132812 66.36806488037109 L -1320.840576171875 67.15433502197266 L -1321.21142578125 67.89548492431641 L -1333.168823242188 91.79112243652344 L -1329.51708984375 106.5187606811523 L -1328.701171875 109.8094100952148 L -1331.975830078125 108.9319534301758 L -1340.591064453125 106.6236114501953 L -1348.831787109375 123.0917892456055 L -1333.166259765625 162.2571411132812 L -1336.437377929688 164.4141082763672 Z"/><path class="f" d="M -1335.023193359375 162.9999237060547 L -1351.0224609375 123.0002975463867 L -1341.649536132812 104.2695007324219 L -1331.458251953125 107.0000839233398 L -1335.287719726562 91.55612945556641 L -1323 67.00050354003906 L -1338.999389648438 18.99991989135742 L -1333.211059570312 -6.323079109191895 L -1333.186279296875 -4.999495983123779 L -1314.999877929688 -15.49978733062744 L -1329.162475585938 -24.03478813171387 L -1305.012573242188 -129.6872863769531 L -1354.463989257812 -129.6872863769531 L -1361.63671875 -65.19145202636719 L -1372.06982421875 -55.14212036132812 L -1363.004272460938 -52.89420318603516 L -1370.999755859375 18.99991989135742 L -1363.119873046875 46.57912826538086 L -1375.022705078125 53.15671157836914 L -1358.656127929688 62.20171356201172 L -1354.99951171875 74.99971008300781 L -1375.022705078125 99.00000762939453 L -1367.022583007812 130.99951171875 L -1335.023193359375 162.9999237060547 M -1335.021850585938 167 C -1336.054565429688 167 -1337.078735351562 166.6012268066406 -1337.851684570312 165.8282928466797 L -1369.85107421875 133.827880859375 C -1370.363647460938 133.3152465820312 -1370.727294921875 132.6729583740234 -1370.903198242188 131.9696655273438 L -1378.9033203125 99.97016906738281 C -1379.213134765625 98.73096466064453 -1378.912353515625 97.4183349609375 -1378.094116210938 96.43754577636719 L -1359.42724609375 74.06291198730469 L -1362.045654296875 64.89874267578125 L -1376.95751953125 56.65766906738281 C -1378.231689453125 55.95346069335938 -1379.022705078125 54.61250305175781 -1379.022705078125 53.1566276550293 C -1379.022705078125 51.70075225830078 -1378.231567382812 50.35987854003906 -1376.957397460938 49.65571212768555 L -1367.84033203125 44.61760330200195 L -1374.845825195312 20.09883689880371 C -1374.98876953125 19.59846305847168 -1375.03271484375 19.07500457763672 -1374.975219726562 18.55779647827148 L -1367.366943359375 -49.85485458374023 L -1373.032592773438 -51.25970458984375 C -1374.445678710938 -51.61008071899414 -1375.556762695312 -52.70058059692383 -1375.93359375 -54.10683059692383 C -1376.310302734375 -55.51312255859375 -1375.893310546875 -57.01303863525391 -1374.8447265625 -58.02303695678711 L -1365.452514648438 -67.06984710693359 L -1358.439453125 -130.1294097900391 C -1358.214233398438 -132.1549530029297 -1356.502075195312 -133.6872863769531 -1354.463989257812 -133.6872863769531 L -1305.012573242188 -133.6872863769531 C -1303.795043945312 -133.6872863769531 -1302.643798828125 -133.1327514648438 -1301.884887695312 -132.1807403564453 C -1301.125854492188 -131.2287445068359 -1300.841796875 -129.9828643798828 -1301.113159179688 -128.7959594726562 L -1324.617919921875 -25.9661865234375 L -1312.935302734375 -18.92574501037598 C -1311.722778320312 -18.19503784179688 -1310.98681640625 -16.87787055969238 -1311 -15.46228790283203 C -1311.013305664062 -14.04670429229736 -1311.773803710938 -12.74357891082764 -1312.999877929688 -12.03570461273193 L -1330.052734375 -2.189900398254395 L -1334.850219726562 18.79848861694336 L -1319.205200195312 65.73567199707031 C -1318.86962890625 66.74250030517578 -1318.947998046875 67.84142303466797 -1319.4228515625 68.79050445556641 L -1331.050048828125 92.02613067626953 L -1327.575805664062 106.0374221801758 C -1327.235107421875 107.4114608764648 -1327.646118164062 108.8632507324219 -1328.656372070312 109.8548812866211 C -1329.4140625 110.5984191894531 -1330.424072265625 111.0001449584961 -1331.45849609375 111.0001678466797 C -1331.803588867188 111.0001678466797 -1332.1513671875 110.9554595947266 -1332.493408203125 110.8637924194336 L -1339.53271484375 108.9777450561523 L -1346.64111328125 123.1832733154297 L -1331.309326171875 161.5144195556641 C -1330.60400390625 163.2777099609375 -1331.23583984375 165.2938842773438 -1332.8212890625 166.3393402099609 C -1333.494262695312 166.7830505371094 -1334.260375976562 167 -1335.021850585938 167 Z"/></g><line class="d" x1="5" y2="31" transform="translate(721.5 23.5)"/><line class="d" x2="6" y2="17" transform="translate(732.5 96.5)"/><line class="d" x1="3" y2="3" transform="translate(721.5 161.5)"/></g><g transform="translate(4.313 -64)"><g class="c" transform="translate(2147 101)"><path class="e" d="M -1357.97314453125 228.4844360351562 L -1361.096435546875 226.0942230224609 L -1341.271728515625 187.0561676025391 L -1372.736206054688 131.99267578125 L -1373.179931640625 131.2162628173828 L -1372.897094726562 130.3679351806641 L -1360.587280273438 93.43777465820312 L -1370.417724609375 77.12553405761719 L -1372.285766601562 74.02576446533203 L -1368.667236328125 74.09358215332031 L -1354.229614257812 74.36416625976562 L -1341.0546875 34.83885192871094 L -1351.00244140625 -24.84907341003418 L -1368.551513671875 -29.20055770874023 L -1372.064086914062 -30.07155799865723 L -1369.457641601562 -32.58219528198242 L -1354.665893554688 -46.83075714111328 L -1364.972412109375 -108.6711502075195 L -1365.360595703125 -110.9999237060547 L -1362.999633789062 -110.9999237060547 L -1306.999877929688 -110.9999237060547 L -1305.120971679688 -110.9999237060547 L -1305.003784179688 -109.1246948242188 L -1299.0556640625 -13.95687580108643 L -1286.281005859375 -6.258920669555664 L -1283.377075195312 -4.50905704498291 L -1286.313232421875 -2.813875436782837 L -1297.939697265625 3.898625135421753 L -1297.003662109375 18.87516975402832 L -1296.976440429688 19.31062507629395 L -1297.133056640625 19.71785163879395 L -1336.86083984375 123.0093002319336 L -1328.775146484375 144.5710296630859 L -1310.461059570312 149.847900390625 L -1307.203369140625 150.7865295410156 L -1309.600463867188 153.1838989257812 L -1321.196411132812 164.7805480957031 L -1313.127197265625 186.2979431152344 L -1312.649169921875 187.5726776123047 L -1313.659790039062 188.4848480224609 L -1357.97314453125 228.4844360351562 Z"/><path class="f" d="M -1359.313232421875 226.9998016357422 L -1314.999877929688 187.0002136230469 L -1323.521240234375 164.2769927978516 L -1311.014770507812 151.7697143554688 L -1330.294799804688 146.2145385742188 L -1339.000244140625 123.0003051757812 L -1298.999755859375 18.99989700317383 L -1300.013061523438 2.786306381225586 L -1287.313232421875 -4.545920848846436 L -1300.986328125 -12.78523921966553 L -1306.999877929688 -108.9999237060547 L -1362.999633789062 -108.9999237060547 L -1352.52001953125 -46.12087631225586 L -1368.070190429688 -31.14178466796875 L -1349.245727539062 -26.47405815124512 L -1339.000244140625 35.00008010864258 L -1352.797119140625 76.39134979248047 L -1368.704711914062 76.09321594238281 L -1358.398315429688 93.19530487060547 L -1370.999755859375 131.0003967285156 L -1339.000244140625 187.0002136230469 L -1359.313232421875 226.9998016357422 M -1359.313842773438 230.9998321533203 C -1360.16796875 230.9998321533203 -1361.024291992188 230.7272186279297 -1361.744140625 230.1763458251953 C -1363.275268554688 229.0047149658203 -1363.752685546875 226.9076232910156 -1362.879638671875 225.1886291503906 L -1343.543334960938 187.1121368408203 L -1374.472778320312 132.9849395751953 C -1375.037353515625 131.9969024658203 -1375.154296875 130.8151245117188 -1374.79443359375 129.7354888916016 L -1362.776245117188 93.68018341064453 L -1372.130615234375 78.15785217285156 C -1372.882202148438 76.91089630126953 -1372.896728515625 75.35408020019531 -1372.168823242188 74.09326171875 C -1371.453491210938 72.85417938232422 -1370.131958007812 72.09319305419922 -1368.704956054688 72.09319305419922 C -1368.679931640625 72.09319305419922 -1368.654907226562 72.09342956542969 -1368.629760742188 72.09389495849609 L -1355.661987304688 72.33693695068359 L -1343.109130859375 34.677734375 L -1352.75927734375 -23.22416305541992 L -1369.032836914062 -27.25937461853027 C -1370.445922851562 -27.60973930358887 -1371.557006835938 -28.70019340515137 -1371.933837890625 -30.10642051696777 C -1372.310668945312 -31.51269340515137 -1371.893676757812 -33.01260375976562 -1370.84521484375 -34.02260208129883 L -1356.811889648438 -47.54063034057617 L -1366.945190429688 -108.3423309326172 C -1367.138549804688 -109.5021514892578 -1366.811767578125 -110.6882858276367 -1366.0517578125 -111.5854187011719 C -1365.291625976562 -112.4826049804688 -1364.175415039062 -112.9999237060547 -1362.999633789062 -112.9999237060547 L -1306.999877929688 -112.9999237060547 C -1304.887573242188 -112.9999237060547 -1303.139404296875 -111.3575592041016 -1303.007690429688 -109.2494201660156 L -1297.125 -15.12850570678711 L -1285.248779296875 -7.97196626663208 C -1284.0361328125 -7.241284370422363 -1283.300170898438 -5.924102783203125 -1283.313354492188 -4.508466243743896 C -1283.32666015625 -3.092829942703247 -1284.087280273438 -1.789648175239563 -1285.313232421875 -1.081829905509949 L -1295.8662109375 5.010917186737061 L -1295.007568359375 18.75039672851562 C -1294.9716796875 19.32426071166992 -1295.059936523438 19.899169921875 -1295.266357421875 20.43580627441406 L -1334.721435546875 123.0182495117188 L -1327.255493164062 142.9275512695312 L -1309.907348632812 147.9260864257812 C -1308.546997070312 148.3180389404297 -1307.4951171875 149.3998107910156 -1307.141479492188 150.7706298828125 C -1306.787963867188 152.1414031982422 -1307.185302734375 153.5969848632812 -1308.186279296875 154.5980377197266 L -1318.87158203125 165.2840270996094 L -1311.254516601562 185.5957183837891 C -1310.677734375 187.1339874267578 -1311.10009765625 188.8686218261719 -1312.319580078125 189.969482421875 L -1356.632934570312 229.9690856933594 C -1357.391235351562 230.6535491943359 -1358.351196289062 230.9998321533203 -1359.313842773438 230.9998321533203 Z"/></g><line class="d" x2="2" y2="9" transform="translate(806.5 85.5)"/><line class="d" x2="2" y2="36" transform="translate(832.5 18.5)"/><line class="d" x1="7" y2="16" transform="translate(815.5 170.5)"/><line class="d" x2="6" y2="12" transform="translate(787.5 235.5)"/><line class="d" x2="4" y2="6" transform="translate(799.5 261.5)"/></g><g transform="translate(4.313 -32)"><g class="c" transform="translate(2227 53)"><path class="e" d="M -1334.76513671875 246.3763122558594 L -1336.727172851562 244.4142303466797 L -1344.429809570312 236.7117614746094 L -1358.66455078125 241.5924530029297 L -1361.87158203125 242.6920928955078 L -1361.282836914062 239.353271484375 L -1358.360595703125 222.7812652587891 L -1376.727661132812 204.4146423339844 L -1382.017700195312 199.1247253417969 L -1374.793701171875 201.0691375732422 L -1346.706298828125 208.6291198730469 L -1329.6630859375 171.3312225341797 L -1376.83203125 116.3018188476562 L -1377.696166992188 115.2935485839844 L -1377.102294921875 114.1057739257812 L -1363.96533203125 87.83229827880859 L -1370.417724609375 77.12550354003906 L -1372.285766601562 74.02568054199219 L -1368.667236328125 74.09354400634766 L -1357.203369140625 74.30843353271484 L -1345.371704101562 50.64560699462891 L -1354.77587890625 -25.78472709655762 L -1368.551513671875 -29.2005443572998 L -1372.064086914062 -30.0715446472168 L -1369.457763671875 -32.58218002319336 L -1357.079345703125 -44.50605392456055 L -1364.984619140625 -108.7556838989258 L -1365.260864257812 -110.9999084472656 L -1362.999633789062 -110.9999084472656 L -1306.999877929688 -110.9999084472656 L -1305.155639648438 -110.9999084472656 L -1305.00634765625 -109.1616821289062 L -1297.188598632812 -12.83182811737061 L -1286.281005859375 -6.258954048156738 L -1283.377075195312 -4.509045124053955 L -1286.313232421875 -2.813863277435303 L -1295.925170898438 2.735569715499878 L -1293.319946289062 34.83831787109375 L -1293.281860351562 35.30663681030273 L -1293.456420898438 35.74286270141602 L -1325.065185546875 114.7661895751953 L -1312.909912109375 132.9992523193359 L -1294.759643554688 138.2288665771484 L -1291.501831054688 139.1675415039062 L -1293.899169921875 141.5649108886719 L -1301.87939453125 149.5451812744141 L -1293.649291992188 161.8905029296875 L -1293.005493164062 162.8562316894531 L -1293.524536132812 163.8943176269531 L -1313.4443359375 203.7346038818359 L -1310.031127929688 218.6054077148438 L -1309.272705078125 221.909912109375 L -1312.53173828125 220.9753112792969 L -1320.869262695312 218.5844573974609 L -1333.524169921875 243.8944091796875 L -1334.76513671875 246.3763122558594 Z"/><path class="f" d="M -1335.31298828125 243 L -1321.9150390625 216.2039489746094 L -1311.98046875 219.0527954101562 L -1315.554321289062 203.4823455810547 L -1295.313354492188 162.9998931884766 L -1304.453002929688 149.2903442382812 L -1295.313354492188 140.1506958007812 L -1314.167602539062 134.7182006835938 L -1327.312866210938 115.0001983642578 L -1295.313354492188 35.00009536743164 L -1298.02099609375 1.636195778846741 L -1287.313232421875 -4.545904159545898 L -1299.09912109375 -11.64800453186035 L -1306.999877929688 -108.9999008178711 L -1362.999633789062 -108.9999008178711 L -1354.972290039062 -43.75870513916016 L -1368.070190429688 -31.14180374145508 L -1352.958862304688 -27.39475440979004 L -1343.31298828125 51.00029754638672 L -1355.978881835938 76.33169555664062 L -1368.704711914062 76.09319305419922 L -1361.684326171875 87.74249267578125 L -1375.3134765625 115.0001983642578 L -1327.312866210938 171 L -1345.590942382812 211.00048828125 L -1375.3134765625 203.0003967285156 L -1356.210205078125 222.1031951904297 L -1359.313232421875 239.7005920410156 L -1343.89794921875 234.4151458740234 L -1335.31298828125 243 M -1335.313110351562 247.0000457763672 C -1336.365234375 247.0000457763672 -1337.38525390625 246.5845489501953 -1338.141357421875 245.8284454345703 L -1344.961547851562 239.0083923339844 L -1358.015869140625 243.4843444824219 C -1358.439575195312 243.6296234130859 -1358.8779296875 243.7006225585938 -1359.312866210938 243.7006378173828 C -1360.252563476562 243.7006988525391 -1361.177612304688 243.3695068359375 -1361.9130859375 242.7404937744141 C -1362.988891601562 241.8203887939453 -1363.498291015625 240.400146484375 -1363.252563476562 239.0059509277344 L -1360.511108398438 223.459228515625 L -1378.141845703125 205.8288421630859 C -1379.422607421875 204.548095703125 -1379.682983398438 202.5665435791016 -1378.776489257812 200.9984436035156 C -1378.049072265625 199.7401580810547 -1376.715698242188 199.0000152587891 -1375.313720703125 199.0000152587891 C -1374.968505859375 199.0000152587891 -1374.619384765625 199.0448455810547 -1374.273803710938 199.1378479003906 L -1347.821533203125 206.2577209472656 L -1332.013427734375 171.6624603271484 L -1378.350463867188 117.6033935546875 C -1379.397827148438 116.3814468383789 -1379.610961914062 114.6507949829102 -1378.89111328125 113.211296081543 L -1366.246215820312 87.92208862304688 L -1372.130615234375 78.15784454345703 C -1372.882202148438 76.91089630126953 -1372.896728515625 75.35409545898438 -1372.168823242188 74.09324645996094 C -1371.453491210938 72.85417175292969 -1370.131958007812 72.09319305419922 -1368.705078125 72.09319305419922 C -1368.679931640625 72.09319305419922 -1368.654907226562 72.09342193603516 -1368.629760742188 72.09389495849609 L -1358.427734375 72.28509521484375 L -1347.430419921875 50.29086685180664 L -1356.5927734375 -24.17472648620605 L -1369.032958984375 -27.2594051361084 C -1370.445922851562 -27.60975456237793 -1371.557006835938 -28.70020484924316 -1371.933959960938 -30.10645484924316 C -1372.310668945312 -31.51270484924316 -1371.893798828125 -33.01260375976562 -1370.84521484375 -34.02265548706055 L -1359.186401367188 -45.25338745117188 L -1366.9697265625 -108.5114059448242 C -1367.109619140625 -109.6488037109375 -1366.755004882812 -110.7916030883789 -1365.995849609375 -111.6500015258789 C -1365.236572265625 -112.5084075927734 -1364.145629882812 -112.9999008178711 -1362.999633789062 -112.9999008178711 L -1306.999877929688 -112.9999008178711 C -1304.916137695312 -112.9999008178711 -1303.181518554688 -111.4003067016602 -1303.012939453125 -109.3234558105469 L -1295.278076171875 -14.01558685302734 L -1285.248779296875 -7.971954345703125 C -1284.036254882812 -7.241254329681396 -1283.300170898438 -5.924054145812988 -1283.3134765625 -4.508454322814941 C -1283.32666015625 -3.092804193496704 -1284.087280273438 -1.78965425491333 -1285.313232421875 -1.081804275512695 L -1293.829345703125 3.834979295730591 L -1291.326416015625 34.67654418945312 C -1291.276489257812 35.29254531860352 -1291.369873046875 35.91179656982422 -1291.599487304688 36.48564529418945 L -1322.817504882812 114.532112121582 L -1311.652221679688 131.2802276611328 L -1294.205932617188 136.3070526123047 C -1292.845581054688 136.6990509033203 -1291.793701171875 137.7808532714844 -1291.440063476562 139.1516418457031 C -1291.086547851562 140.5224914550781 -1291.48388671875 141.9780883789062 -1292.48486328125 142.9791412353516 L -1299.305786132812 149.800048828125 L -1291.985107421875 160.7810974121094 C -1291.18896484375 161.9754486083984 -1291.09375 163.5048522949219 -1291.735595703125 164.7887420654297 L -1311.33447265625 203.9869537353516 L -1308.081909179688 218.1579437255859 C -1307.76513671875 219.5377960205078 -1308.201293945312 220.9822387695312 -1309.228881835938 221.9560394287109 C -1309.982055664062 222.6698455810547 -1310.970703125 223.0528717041016 -1311.980834960938 223.0528717041016 C -1312.348754882812 223.0528717041016 -1312.7197265625 223.0020446777344 -1313.0830078125 222.8978424072266 L -1319.823486328125 220.9649658203125 L -1331.7353515625 244.7888488769531 C -1332.310302734375 245.9388885498047 -1333.403076171875 246.7424011230469 -1334.672241210938 246.9483489990234 C -1334.885864257812 246.9830169677734 -1335.100219726562 247.0000457763672 -1335.313110351562 247.0000457763672 Z"/></g><line class="d" x2="2" y2="23" transform="translate(889.5 31.5)"/><line class="d" x2="3" y2="30" transform="translate(911.5 -11.5)"/><line class="d" x1="8" y2="23" transform="translate(903.5 116.5)"/><line class="d" x2="10" y2="13" transform="translate(879.5 187)"/><line class="d" x1="8" y2="15" transform="translate(893.5 238.5)"/></g></g></g></svg>