<svg xmlns="http://www.w3.org/2000/svg" xmlns:xlink="http://www.w3.org/1999/xlink" width="368" height="192" viewBox="0 0 368 192"><defs><style>.a,.d,.f,.i{fill:none;}.a{stroke:red;}.a,.c,.d,.e,.f{stroke-linecap:round;}.a,.c,.e,.f{stroke-linejoin:round;}.b{clip-path:url(#a);}.d,.e,.f{stroke:#fff;}.e{stroke-width:4px;}.g,.h{stroke:none;}.h{fill:#fff;}</style><clipPath id="a"><rect class="a" width="368" height="192" transform="translate(184 1040)"/></clipPath></defs><g class="b" transform="translate(-184 -1040)"><g transform="translate(-392 624)"><g transform="translate(456.366 -131.135) rotate(21)"><g class="c" transform="translate(-1371 -109)"><path class="g" d="M 1811.851684570312 639.5607299804688 L 1811.291381835938 634.6693115234375 L 1803.398681640625 565.7710571289062 L 1803.363647460938 565.4659423828125 L 1803.421875 565.1643676757812 L 1809.2919921875 534.7549438476562 L 1810.045288085938 530.8528442382812 L 1812.730224609375 533.7827758789062 L 1828.1259765625 550.5829467773438 L 1828.35791015625 550.8360595703125 L 1828.4921875 551.1519775390625 L 1846.363037109375 593.2064208984375 L 1846.821044921875 594.2843017578125 L 1846.105224609375 595.211181640625 L 1814.861206054688 635.6641845703125 L 1811.851684570312 639.5607299804688 Z"/><path class="h" d="M 1813.2783203125 634.441650390625 L 1844.522338867188 593.9886474609375 L 1826.651489257812 551.9342041015625 L 1811.255737304688 535.134033203125 L 1805.385620117188 565.54345703125 L 1813.2783203125 634.441650390625 M 1813.278076171875 638.4418334960938 C 1812.920776367188 638.4418334960938 1812.559936523438 638.3938598632812 1812.204467773438 638.2947998046875 C 1810.636352539062 637.8577880859375 1809.489501953125 636.51416015625 1809.304321289062 634.8969116210938 L 1801.41162109375 565.9987182617188 C 1801.365234375 565.59423828125 1801.380981445312 565.18505859375 1801.458129882812 564.7852783203125 L 1807.328247070312 534.3759155273438 C 1807.61474609375 532.8919677734375 1808.713134765625 531.6961669921875 1810.167358398438 531.284912109375 C 1810.526733398438 531.183349609375 1810.892822265625 531.1339111328125 1811.255493164062 531.1339111328125 C 1812.360717773438 531.1339111328125 1813.435913085938 531.5925903320312 1814.204711914062 532.4315795898438 L 1829.600463867188 549.2317504882812 C 1829.907470703125 549.5667114257812 1830.155151367188 549.9515991210938 1830.332885742188 550.3698120117188 L 1848.203735351562 592.4242553710938 C 1848.76953125 593.7556762695312 1848.572387695312 595.288818359375 1847.688110351562 596.4337158203125 L 1816.443969726562 636.88671875 C 1815.674560546875 637.8829956054688 1814.497314453125 638.4418334960938 1813.278076171875 638.4418334960938 Z"/></g><line class="d" x2="17.747" y2="81.21" transform="translate(439.753 425.29)"/><line class="d" x1="14" y1="8" transform="translate(436.5 466.5)"/><line class="d" y1="17" x2="6" transform="translate(447.5 442.5)"/></g><g transform="translate(156.499 58.863) rotate(-7)"><g class="c" transform="translate(-1371 -109)"><path class="g" d="M 1811.851684570312 639.5607299804688 L 1811.291381835938 634.6693115234375 L 1803.398681640625 565.7710571289062 L 1803.363647460938 565.4659423828125 L 1803.421875 565.1643676757812 L 1809.2919921875 534.7549438476562 L 1810.045288085938 530.8528442382812 L 1812.730224609375 533.7827758789062 L 1828.1259765625 550.5829467773438 L 1828.35791015625 550.8360595703125 L 1828.4921875 551.1519775390625 L 1846.363037109375 593.2064208984375 L 1846.821044921875 594.2843017578125 L 1846.105224609375 595.211181640625 L 1814.861206054688 635.6641845703125 L 1811.851684570312 639.5607299804688 Z"/><path class="h" d="M 1813.2783203125 634.441650390625 L 1844.522338867188 593.9886474609375 L 1826.651489257812 551.9342041015625 L 1811.255737304688 535.134033203125 L 1805.385620117188 565.54345703125 L 1813.2783203125 634.441650390625 M 1813.278076171875 638.4418334960938 C 1812.920776367188 638.4418334960938 1812.559936523438 638.3938598632812 1812.204467773438 638.2947998046875 C 1810.636352539062 637.8577880859375 1809.489501953125 636.51416015625 1809.304321289062 634.8969116210938 L 1801.41162109375 565.9987182617188 C 1801.365234375 565.59423828125 1801.380981445312 565.18505859375 1801.458129882812 564.7852783203125 L 1807.328247070312 534.3759155273438 C 1807.61474609375 532.8919677734375 1808.713134765625 531.6961669921875 1810.167358398438 531.284912109375 C 1810.526733398438 531.183349609375 1810.892822265625 531.1339111328125 1811.255493164062 531.1339111328125 C 1812.360717773438 531.1339111328125 1813.435913085938 531.5925903320312 1814.204711914062 532.4315795898438 L 1829.600463867188 549.2317504882812 C 1829.907470703125 549.5667114257812 1830.155151367188 549.9515991210938 1830.332885742188 550.3698120117188 L 1848.203735351562 592.4242553710938 C 1848.76953125 593.7556762695312 1848.572387695312 595.288818359375 1847.688110351562 596.4337158203125 L 1816.443969726562 636.88671875 C 1815.674560546875 637.8829956054688 1814.497314453125 638.4418334960938 1813.278076171875 638.4418334960938 Z"/></g><line class="d" x2="17.192" y2="80.024" transform="translate(440.308 426.476)"/><line class="d" x1="14" y1="8" transform="translate(436.5 466.5)"/><line class="d" y1="19.164" x2="7.227" transform="translate(447.5 440.336)"/></g><g transform="translate(297.294 -47.211) rotate(7)"><g class="c" transform="translate(-1371 -109)"><path class="g" d="M 1811.646118164062 637.7661743164062 L 1811.291259765625 634.6693115234375 L 1803.398559570312 565.7710571289062 L 1803.363647460938 565.4659423828125 L 1803.421875 565.1643676757812 L 1809.2919921875 534.7549438476562 L 1810.045288085938 530.8528442382812 L 1812.730224609375 533.7827758789062 L 1828.1259765625 550.5829467773438 L 1828.361083984375 550.8395385742188 L 1828.495727539062 551.160400390625 L 1853.400634765625 610.5175170898438 L 1854.068481445312 612.1093139648438 L 1852.591430664062 613.002685546875 L 1814.313354492188 636.1530151367188 L 1811.646118164062 637.7661743164062 Z"/><path class="h" d="M 1813.2783203125 634.441650390625 L 1851.556396484375 611.2913208007812 L 1826.651489257812 551.9342041015625 L 1811.255737304688 535.134033203125 L 1805.385620117188 565.54345703125 L 1813.2783203125 634.441650390625 M 1813.278198242188 638.441650390625 C 1812.676025390625 638.441650390625 1812.072875976562 638.305908203125 1811.515380859375 638.0322265625 C 1810.292602539062 637.4318237304688 1809.459350585938 636.2503662109375 1809.304321289062 634.8969116210938 L 1801.41162109375 565.9987182617188 C 1801.365234375 565.59423828125 1801.380981445312 565.18505859375 1801.458129882812 564.7852783203125 L 1807.328247070312 534.3759155273438 C 1807.61474609375 532.8919677734375 1808.713134765625 531.6961669921875 1810.167358398438 531.284912109375 C 1810.526733398438 531.183349609375 1810.892700195312 531.1339111328125 1811.255493164062 531.1339111328125 C 1812.360717773438 531.1339111328125 1813.435913085938 531.5925903320312 1814.204711914062 532.4315795898438 L 1829.600463867188 549.2317504882812 C 1829.91162109375 549.5712280273438 1830.161865234375 549.9619140625 1830.339965820312 550.3865966796875 L 1855.244873046875 609.7437133789062 C 1856.01220703125 611.5726318359375 1855.323486328125 613.6876220703125 1853.62646484375 614.7140502929688 L 1815.348388671875 637.8643798828125 C 1814.713989257812 638.248046875 1813.996948242188 638.441650390625 1813.278198242188 638.441650390625 Z"/></g><line class="d" x2="17.191" y2="81.279" transform="translate(440.309 425.221)"/><line class="d" x1="14" y1="8" transform="translate(436.5 466.5)"/><line class="d" y1="19.861" x2="6.67" transform="translate(447.5 439.639)"/><line class="d" y1="25" x2="12" transform="translate(455.5 470.5)"/></g><g class="e" transform="translate(624 430)"><rect class="g" width="8" height="26"/><rect class="i" x="-2" y="-2" width="12" height="30"/></g><g class="e" transform="translate(592 430)"><rect class="g" width="8" height="26"/><rect class="i" x="-2" y="-2" width="12" height="30"/></g><g class="c" transform="translate(31.729)"><path class="g" d="M 610.271240234375 442 L 608.271240234375 442 L 584.271240234375 442 L 582.271240234375 442 L 582.271240234375 440 L 582.271240234375 434.6666870117188 L 582.271240234375 434.0182800292969 L 582.6516723632812 433.4932250976562 L 590.38037109375 422.8265380859375 L 590.979248046875 422 L 591.9999389648438 422 L 599.9999389648438 422 L 600.9799194335938 422 L 601.5804443359375 422.7744445800781 L 609.8517456054688 433.4411315917969 L 610.271240234375 433.9821166992188 L 610.271240234375 434.6666870117188 L 610.271240234375 440 L 610.271240234375 442 Z"/><path class="h" d="M 591.9999389648438 424 L 584.271240234375 434.6666870117188 L 584.271240234375 440 L 608.271240234375 440 L 608.271240234375 434.6666870117188 L 599.9999389648438 424 L 591.9999389648438 424 M 591.9999389648438 420 L 599.9999389648438 420 C 601.2363891601562 420 602.4032592773438 420.57177734375 603.1609497070312 421.5488586425781 L 611.4322509765625 432.2155456542969 C 611.97607421875 432.9169006347656 612.271240234375 433.7791748046875 612.271240234375 434.6666870117188 L 612.271240234375 440 C 612.271240234375 442.2091369628906 610.4804077148438 444 608.271240234375 444 L 584.271240234375 444 C 582.0620727539062 444 580.271240234375 442.2091369628906 580.271240234375 440 L 580.271240234375 434.6666870117188 C 580.271240234375 433.82373046875 580.5375366210938 433.0023498535156 581.0321044921875 432.3197631835938 L 588.7608032226562 421.6530456542969 C 589.51318359375 420.6147155761719 590.7177124023438 420 591.9999389648438 420 Z"/></g><g class="c" transform="translate(-0.271)"><path class="g" d="M 610.271240234375 442 L 608.271240234375 442 L 584.271240234375 442 L 582.271240234375 442 L 582.271240234375 440 L 582.271240234375 434.6666870117188 L 582.271240234375 434.0182800292969 L 582.6516723632812 433.4932250976562 L 590.38037109375 422.8265380859375 L 590.979248046875 422 L 591.9999389648438 422 L 599.9999389648438 422 L 600.9799194335938 422 L 601.5804443359375 422.7744445800781 L 609.8517456054688 433.4411315917969 L 610.271240234375 433.9821166992188 L 610.271240234375 434.6666870117188 L 610.271240234375 440 L 610.271240234375 442 Z"/><path class="h" d="M 591.9999389648438 424 L 584.271240234375 434.6666870117188 L 584.271240234375 440 L 608.271240234375 440 L 608.271240234375 434.6666870117188 L 599.9999389648438 424 L 591.9999389648438 424 M 591.9999389648438 420 L 599.9999389648438 420 C 601.2363891601562 420 602.4032592773438 420.57177734375 603.1609497070312 421.5488586425781 L 611.4322509765625 432.2155456542969 C 611.97607421875 432.9169006347656 612.271240234375 433.7791748046875 612.271240234375 434.6666870117188 L 612.271240234375 440 C 612.271240234375 442.2091369628906 610.4804077148438 444 608.271240234375 444 L 584.271240234375 444 C 582.0620727539062 444 580.271240234375 442.2091369628906 580.271240234375 440 L 580.271240234375 434.6666870117188 C 580.271240234375 433.82373046875 580.5375366210938 433.0023498535156 581.0321044921875 432.3197631835938 L 588.7608032226562 421.6530456542969 C 589.51318359375 420.6147155761719 590.7177124023438 420 591.9999389648438 420 Z"/></g><g transform="translate(889.845 -177.365) rotate(45)"><g class="c" transform="translate(-1371 -109)"><path class="g" d="M 1811.646118164062 637.7661743164062 L 1811.291259765625 634.6693115234375 L 1803.398559570312 565.7710571289062 L 1803.363647460938 565.4659423828125 L 1803.421875 565.1643676757812 L 1809.2919921875 534.7549438476562 L 1810.045288085938 530.8528442382812 L 1812.730224609375 533.7827758789062 L 1828.1259765625 550.5829467773438 L 1828.361083984375 550.8395385742188 L 1828.495727539062 551.160400390625 L 1853.400634765625 610.5175170898438 L 1854.068481445312 612.1093139648438 L 1852.591430664062 613.002685546875 L 1814.313354492188 636.1530151367188 L 1811.646118164062 637.7661743164062 Z"/><path class="h" d="M 1813.2783203125 634.441650390625 L 1851.556396484375 611.2913208007812 L 1826.651489257812 551.9342041015625 L 1811.255737304688 535.134033203125 L 1805.385620117188 565.54345703125 L 1813.2783203125 634.441650390625 M 1813.278198242188 638.441650390625 C 1812.676025390625 638.441650390625 1812.072875976562 638.305908203125 1811.515380859375 638.0322265625 C 1810.292602539062 637.4318237304688 1809.459350585938 636.2503662109375 1809.304321289062 634.8969116210938 L 1801.41162109375 565.9987182617188 C 1801.365234375 565.59423828125 1801.380981445312 565.18505859375 1801.458129882812 564.7852783203125 L 1807.328247070312 534.3759155273438 C 1807.61474609375 532.8919677734375 1808.713134765625 531.6961669921875 1810.167358398438 531.284912109375 C 1810.526733398438 531.183349609375 1810.892700195312 531.1339111328125 1811.255493164062 531.1339111328125 C 1812.360717773438 531.1339111328125 1813.435913085938 531.5925903320312 1814.204711914062 532.4315795898438 L 1829.600463867188 549.2317504882812 C 1829.91162109375 549.5712280273438 1830.161865234375 549.9619140625 1830.339965820312 550.3865966796875 L 1855.244873046875 609.7437133789062 C 1856.01220703125 611.5726318359375 1855.323486328125 613.6876220703125 1853.62646484375 614.7140502929688 L 1815.348388671875 637.8643798828125 C 1814.713989257812 638.248046875 1813.996948242188 638.441650390625 1813.278198242188 638.441650390625 Z"/></g><line class="d" x2="17.312" y2="81.38" transform="translate(440.188 425.12)"/><line class="d" x1="14" y1="8" transform="translate(436.5 466.5)"/><line class="d" y1="17" x2="6" transform="translate(447.5 442.5)"/><line class="d" y1="25" x2="12" transform="translate(455.5 470.5)"/></g><g transform="matrix(0.891, 0.454, -0.454, 0.891, 660.51, -160.025)"><g class="c" transform="translate(-1371 -109)"><path class="g" d="M 1813.9921875 637.3926391601562 L 1813.598876953125 634.7343139648438 L 1803.4072265625 565.8361206054688 L 1803.349243164062 565.4441528320312 L 1803.445068359375 565.0597534179688 L 1811.025268554688 534.6503295898438 L 1811.802368164062 531.5324096679688 L 1814.256713867188 533.6064453125 L 1834.137084960938 550.4066162109375 L 1834.425048828125 550.6499633789062 L 1834.604736328125 550.9814453125 L 1866.7646484375 610.3385620117188 L 1867.774780273438 612.2030639648438 L 1865.854370117188 613.1025390625 L 1816.425659179688 636.2528686523438 L 1813.9921875 637.3926391601562 Z"/><path class="h" d="M 1815.577392578125 634.441650390625 L 1865.006103515625 611.2913208007812 L 1832.84619140625 551.9342041015625 L 1812.9658203125 535.134033203125 L 1805.3857421875 565.54345703125 L 1815.577392578125 634.441650390625 M 1815.577514648438 638.441650390625 C 1814.925415039062 638.441650390625 1814.274536132812 638.2824096679688 1813.684448242188 637.9653930664062 C 1812.57080078125 637.3671264648438 1811.805419921875 636.277587890625 1811.620483398438 635.0269775390625 L 1801.428833007812 566.1287841796875 C 1801.352294921875 565.6112060546875 1801.3779296875 565.0836791992188 1801.504516601562 564.5759887695312 L 1809.084594726562 534.1665649414062 C 1809.418823242188 532.8258056640625 1810.42138671875 531.75244140625 1811.736328125 531.3276977539062 C 1812.139038085938 531.1976318359375 1812.5537109375 531.1339721679688 1812.965454101562 531.1339721679688 C 1813.89794921875 531.1339721679688 1814.8154296875 531.4601440429688 1815.547607421875 532.078857421875 L 1835.427978515625 548.8790283203125 C 1835.80859375 549.20068359375 1836.125732421875 549.590576171875 1836.363159179688 550.0286865234375 L 1868.523071289062 609.3858032226562 C 1869.047729492188 610.3543090820312 1869.14990234375 611.4962768554688 1868.805419921875 612.54248046875 C 1868.460815429688 613.5886840820312 1867.7001953125 614.446533203125 1866.70263671875 614.9136962890625 L 1817.27392578125 638.0640258789062 C 1816.735717773438 638.316162109375 1816.156127929688 638.441650390625 1815.577514648438 638.441650390625 Z"/></g><line class="d" x2="22.505" y2="82.278" transform="translate(441.728 424.222)"/><line class="d" x1="18.078" y1="8" transform="translate(437.116 466.5)"/><line class="d" y1="19.762" x2="8.415" transform="translate(451.32 439.738)"/><line class="d" y1="25" x2="15.496" transform="translate(461.651 470.5)"/></g><g transform="translate(832.845 -186.365) rotate(45)"><g class="c" transform="translate(-1371 -109)"><path class="g" d="M 1811.646118164062 637.7661743164062 L 1811.291259765625 634.6693115234375 L 1803.398559570312 565.7710571289062 L 1803.363647460938 565.4659423828125 L 1803.421875 565.1643676757812 L 1809.2919921875 534.7549438476562 L 1810.045288085938 530.8528442382812 L 1812.730224609375 533.7827758789062 L 1828.1259765625 550.5829467773438 L 1828.361083984375 550.8395385742188 L 1828.495727539062 551.160400390625 L 1853.400634765625 610.5175170898438 L 1854.068481445312 612.1093139648438 L 1852.591430664062 613.002685546875 L 1814.313354492188 636.1530151367188 L 1811.646118164062 637.7661743164062 Z"/><path class="h" d="M 1813.2783203125 634.441650390625 L 1851.556396484375 611.2913208007812 L 1826.651489257812 551.9342041015625 L 1811.255737304688 535.134033203125 L 1805.385620117188 565.54345703125 L 1813.2783203125 634.441650390625 M 1813.278198242188 638.441650390625 C 1812.676025390625 638.441650390625 1812.072875976562 638.305908203125 1811.515380859375 638.0322265625 C 1810.292602539062 637.4318237304688 1809.459350585938 636.2503662109375 1809.304321289062 634.8969116210938 L 1801.41162109375 565.9987182617188 C 1801.365234375 565.59423828125 1801.380981445312 565.18505859375 1801.458129882812 564.7852783203125 L 1807.328247070312 534.3759155273438 C 1807.61474609375 532.8919677734375 1808.713134765625 531.6961669921875 1810.167358398438 531.284912109375 C 1810.526733398438 531.183349609375 1810.892700195312 531.1339111328125 1811.255493164062 531.1339111328125 C 1812.360717773438 531.1339111328125 1813.435913085938 531.5925903320312 1814.204711914062 532.4315795898438 L 1829.600463867188 549.2317504882812 C 1829.91162109375 549.5712280273438 1830.161865234375 549.9619140625 1830.339965820312 550.3865966796875 L 1855.244873046875 609.7437133789062 C 1856.01220703125 611.5726318359375 1855.323486328125 613.6876220703125 1853.62646484375 614.7140502929688 L 1815.348388671875 637.8643798828125 C 1814.713989257812 638.248046875 1813.996948242188 638.441650390625 1813.278198242188 638.441650390625 Z"/></g><line class="d" x2="17.312" y2="81.38" transform="translate(440.188 425.12)"/><line class="d" x1="14" y1="8" transform="translate(436.5 466.5)"/><line class="d" y1="20.945" x2="6.123" transform="translate(447.5 438.555)"/><line class="d" y1="25" x2="12" transform="translate(455.5 470.5)"/></g><g transform="translate(922.071 -186.14) rotate(45)"><g class="c" transform="translate(-1371 -108.561)"><path class="g" d="M 1813.767333984375 664.4566650390625 L 1813.41259765625 661.3597412109375 L 1803.398681640625 573.944091796875 L 1803.363647460938 573.6389770507812 L 1803.421875 573.33740234375 L 1810.86962890625 534.7549438476562 L 1811.622924804688 530.8529052734375 L 1814.307861328125 533.7827758789062 L 1833.841552734375 555.0982666015625 L 1834.07666015625 555.3548583984375 L 1834.211303710938 555.6757202148438 L 1865.809692382812 630.9859619140625 L 1866.4775390625 632.5777587890625 L 1865.00048828125 633.4711303710938 L 1816.4345703125 662.843505859375 L 1813.767333984375 664.4566650390625 Z"/><path class="h" d="M 1815.399536132812 661.1321411132812 L 1863.965454101562 631.759765625 L 1832.367065429688 556.4495239257812 L 1812.833374023438 535.134033203125 L 1805.385620117188 573.7164916992188 L 1815.399536132812 661.1321411132812 M 1815.3994140625 665.1321411132812 C 1814.79736328125 665.1321411132812 1814.194091796875 664.9963989257812 1813.636596679688 664.7227172851562 C 1812.413818359375 664.122314453125 1811.58056640625 662.9408569335938 1811.425537109375 661.58740234375 L 1801.41162109375 574.1717529296875 C 1801.365234375 573.7672729492188 1801.380981445312 573.3580932617188 1801.458129882812 572.9583740234375 L 1808.905883789062 534.3759155273438 C 1809.1923828125 532.8919067382812 1810.290771484375 531.6961669921875 1811.744995117188 531.284912109375 C 1812.104370117188 531.183349609375 1812.470458984375 531.1339111328125 1812.833129882812 531.1339111328125 C 1813.938354492188 531.1339111328125 1815.013549804688 531.5925903320312 1815.782348632812 532.4315795898438 L 1835.316040039062 553.7470092773438 C 1835.627197265625 554.0865478515625 1835.877319335938 554.4772338867188 1836.055541992188 554.9019165039062 L 1867.653930664062 630.212158203125 C 1868.421264648438 632.0410766601562 1867.732543945312 634.1560668945312 1866.035522460938 635.1824951171875 L 1817.469604492188 664.5548706054688 C 1816.835205078125 664.9385375976562 1816.1181640625 665.1321411132812 1815.3994140625 665.1321411132812 Z"/></g><line class="d" x2="22.627" y2="103.238" transform="translate(441.283 425.12)"/><line class="d" x1="19.799" y1="11.314" transform="translate(434.919 476.739)"/><line class="d" y1="25.456" x2="8.485" transform="translate(451.183 443.505)"/><line class="d" y1="31.113" x2="15.556" transform="translate(461.082 483.103)"/></g><g class="c" transform="translate(-1467 -109)"><path class="g" d="M 2406.362548828125 711 L 2403 711 L 2051 711 L 2049 711 L 2049 709 L 2049 621 L 2049 620.1715698242188 L 2049.585693359375 619.5857543945312 L 2064.0927734375 605.078857421875 L 2049.578125 590.4065551757812 L 2049 589.8220825195312 L 2049 589 L 2049 565 L 2049 563 L 2051 563 L 2115 563 L 2115.60546875 563 L 2116.109375 563.3359375 L 2140.109375 579.3359375 L 2140.626220703125 579.6804809570312 L 2140.85693359375 580.2572021484375 L 2155.94140625 617.9686279296875 L 2177.221923828125 603.7816772460938 L 2193.047607421875 532.566162109375 L 2193.395751953125 531 L 2195 531 L 2285.66650390625 531 L 2287.01123046875 531 L 2287.518798828125 532.2454223632812 L 2313.47998046875 595.9684448242188 L 2332.570556640625 619.3974609375 L 2364.770263671875 635.2047119140625 L 2365.34228515625 635.4854736328125 L 2365.646484375 636.0452880859375 L 2404.757568359375 708.0452880859375 L 2406.362548828125 711 Z"/><path class="h" d="M 2403 709 L 2363.888916015625 637 L 2331.29638671875 621 L 2311.74072265625 597 L 2285.66650390625 533 L 2195 533 L 2179 605 L 2155 621 L 2139 581 L 2115 565 L 2051 565 L 2051 589 L 2066.91357421875 605.0864868164062 L 2051 621 L 2051 709 L 2403 709 M 2403 713 L 2051 713 C 2048.790771484375 713 2047 711.2091674804688 2047 709 L 2047 621 C 2047 619.9391479492188 2047.421508789062 618.9216918945312 2048.171630859375 618.1715698242188 L 2061.27197265625 605.0712280273438 L 2048.15625 591.8131103515625 C 2047.41552734375 591.0642700195312 2047 590.0534057617188 2047 589 L 2047 565 C 2047 562.7908325195312 2048.790771484375 561 2051 561 L 2115 561 C 2115.789794921875 561 2116.561767578125 561.2337646484375 2117.21875 561.6718139648438 L 2141.21875 577.6718139648438 C 2141.89208984375 578.1206665039062 2142.413330078125 578.7631225585938 2142.7138671875 579.5144653320312 L 2156.883056640625 614.937255859375 L 2175.44384765625 602.5633544921875 L 2191.09521484375 532.13232421875 C 2191.501953125 530.3021240234375 2193.125244140625 529 2195 529 L 2285.66650390625 529 C 2287.29296875 529 2288.75732421875 529.9846801757812 2289.370849609375 531.4907836914062 L 2315.219482421875 594.9368896484375 L 2333.8447265625 617.7949829101562 L 2365.651611328125 633.4093627929688 C 2366.395751953125 633.774658203125 2367.008056640625 634.3621826171875 2367.40380859375 635.0906982421875 L 2406.514892578125 707.0906982421875 C 2407.188232421875 708.3301391601562 2407.158935546875 709.83251953125 2406.437744140625 711.0448608398438 C 2405.716796875 712.257080078125 2404.410400390625 713 2403 713 Z"/></g><line class="d" x1="12.222" y2="27" transform="translate(606.407 515.5)"/><line class="d" x2="11.407" y2="15" transform="translate(733.518 539.5)"/><line class="d" y2="10" transform="translate(747.37 565.5)"/><line class="d" y2="12" transform="translate(666.704 570.5)"/><line class="d" x2="13.037" y2="30" transform="translate(822.333 457.5)"/><line class="d" x2="5.704" y2="10" transform="translate(850.852 529.5)"/><line class="d" x2="8.148" transform="translate(866.333 542.5)"/><line class="d" x2="7.333" y2="10" transform="translate(886.704 558.5)"/><path class="f" d="M880.424,594.284,853.719,480.936l-45.232-1.972-12,103.768" transform="translate(-39.35)"/><path class="f" d="M2150.526,692.692l-18.506-92.1h-29.888L2092.9,682.87" transform="translate(-1321.574 -109)"/><path class="f" d="M2138.69,690.778l-12.942-73.964-11.464,1.883-9.769,66.334" transform="translate(-1323.725 -109)"/><path class="f" d="M640.346,526.914l21.939,25.217v36.3" transform="translate(-10.434)"/><path class="f" d="M645.583,591.231l.514-35.085L625.942,538.8l-16.55,52.436" transform="translate(-4.702)"/><path class="f" d="M624.781,588.429l7.87-27.97,6.326,3.509v24.461" transform="translate(-7.552)"/></g></g></svg>