<svg xmlns="http://www.w3.org/2000/svg" xmlns:xlink="http://www.w3.org/1999/xlink" width="144" height="96" viewBox="0 0 144 96"><defs><style>.a,.f{fill:none;}.a{stroke:red;}.b{clip-path:url(#a);}.c{opacity:0.497;fill:url(#b);}.d{fill:#ffc440;opacity:0.904;}.e{fill:#fff;}.f{stroke:#fff;stroke-width:2px;}</style><clipPath id="a"><rect class="a" width="144" height="96" transform="translate(1776 432)"/></clipPath><linearGradient id="b" x1="1" y1="0.5" x2="0" y2="0.5" gradientUnits="objectBoundingBox"><stop offset="0" stop-color="#ffc440"/><stop offset="1" stop-color="#ffc440" stop-opacity="0"/></linearGradient></defs><g class="b" transform="translate(-1776 -432)"><path class="c" d="M0,0H96a48,48,0,0,1,48,48v0A48,48,0,0,1,96,96H0a0,0,0,0,1,0,0V0A0,0,0,0,1,0,0Z" transform="translate(1776 432)"/><path class="c" d="M0,0H34a4,4,0,0,1,4,4V4a4,4,0,0,1-4,4H0A0,0,0,0,1,0,8V0A0,0,0,0,1,0,0Z" transform="translate(1786 440)"/><path class="c" d="M0,0H20a4,4,0,0,1,4,4V4a4,4,0,0,1-4,4H0A0,0,0,0,1,0,8V0A0,0,0,0,1,0,0Z" transform="translate(1808 456)"/><path class="c" d="M0,0H34a4,4,0,0,1,4,4V4a4,4,0,0,1-4,4H0A0,0,0,0,1,0,8V0A0,0,0,0,1,0,0Z" transform="translate(1816 504)"/><path class="c" d="M0,0H20a4,4,0,0,1,4,4V4a4,4,0,0,1-4,4H0A0,0,0,0,1,0,8V0A0,0,0,0,1,0,0Z" transform="translate(1792 496)"/><path class="c" d="M0,0H20a4,4,0,0,1,4,4V4a4,4,0,0,1-4,4H0A0,0,0,0,1,0,8V0A0,0,0,0,1,0,0Z" transform="translate(1776 512)"/><circle class="d" cx="39.783" cy="39.783" r="39.783" transform="translate(1911.521 518.244) rotate(180)"/><circle class="e" cx="7.957" cy="7.957" r="7.957" transform="translate(1800.13 470.504) rotate(90)"/><line class="f" y2="63.652" transform="translate(1863.782 478.461) rotate(90)"/><line class="f" x2="47.739" transform="translate(1863.782 454.591) rotate(90)"/><line class="f" x1="17.902" y1="17.902" transform="translate(1881.685 460.559) rotate(90)"/><line class="f" x1="17.902" y2="17.902" transform="translate(1881.685 478.461) rotate(90)"/><line class="f" y2="23.869" transform="translate(1887.652 478.461) rotate(90)"/></g></svg>