<svg xmlns="http://www.w3.org/2000/svg" xmlns:xlink="http://www.w3.org/1999/xlink" width="120" height="120" viewBox="0 0 120 120"><defs><style>.a,.e{fill:none;}.a{stroke:red;}.b{clip-path:url(#a);}.c,.f{fill:#ffc440;}.c{opacity:0.897;}.d{fill:#fff;}.e{stroke:#fff;stroke-width:2px;}.f{opacity:0.903;}</style><clipPath id="a"><rect class="a" width="120" height="120" transform="translate(1536 288)"/></clipPath></defs><g class="b" transform="translate(-1536 -288)"><g transform="translate(1005.598 -23.03)"><path class="c" d="M5478,363l40,4.725,2.274,13.859L5534,395l-8.094,36.365L5486,443l-40-24,8-24-4.034-11.646Z" transform="translate(-4891.598 -43.97)"/><circle class="d" cx="7.957" cy="7.957" r="7.957" transform="translate(538.402 407.116)"/><line class="e" y2="63.652" transform="translate(596.993 364.438) rotate(45)"/><line class="e" x2="47.739" transform="translate(580.115 347.56) rotate(45)"/><line class="e" x1="17.902" y1="17.902" transform="translate(596.993 339.121) rotate(45)"/><line class="e" x1="17.902" y2="17.902" transform="translate(609.652 351.779) rotate(45)"/><line class="e" y2="23.869" transform="translate(613.872 347.56) rotate(45)"/><path class="f" d="M5.5,0,11,9H0Z" transform="translate(558.289 348.895) rotate(100)"/><path class="f" d="M3.5,0,7,6H0Z" transform="translate(638.313 328.744) rotate(73)"/><path class="f" d="M3.5,0,7,6H0Z" transform="translate(584.175 406.65) rotate(-62)"/></g></g></svg>