<svg xmlns="http://www.w3.org/2000/svg" xmlns:xlink="http://www.w3.org/1999/xlink" width="120" height="120" viewBox="0 0 120 120"><defs><style>.a,.e,.f{fill:none;}.a{stroke:red;}.b{clip-path:url(#a);}.c{fill:#ffc440;opacity:0.904;}.d{fill:#fff;}.e,.f{stroke:#fff;}.e{stroke-width:2px;}.f{stroke-linecap:round;}</style><clipPath id="a"><rect class="a" width="120" height="120" transform="translate(1824 288)"/></clipPath></defs><g class="b" transform="translate(-1824 -288)"><g transform="translate(2 -0.063)"><g transform="translate(1293.598 -23.03)"><path class="c" d="M39.783,0C61.754,0,80.33,21.436,80.33,43.407S61.754,79.565,39.783,79.565.765,65.378.765,43.407,17.811,0,39.783,0Z" transform="translate(602.62 302.551) rotate(45)"/><circle class="d" cx="7.957" cy="7.957" r="7.957" transform="translate(538.402 407.116)"/><line class="e" y2="63.652" transform="translate(596.993 364.438) rotate(45)"/><line class="e" x2="47.739" transform="translate(580.115 347.56) rotate(45)"/><line class="e" x1="17.902" y1="17.902" transform="translate(596.993 339.121) rotate(45)"/><line class="e" x1="17.902" y2="17.902" transform="translate(609.652 351.779) rotate(45)"/><line class="e" y2="23.869" transform="translate(613.872 347.56) rotate(45)"/></g><circle class="d" cx="1" cy="1" r="1" transform="translate(1850 352)"/><circle class="d" cx="1" cy="1" r="1" transform="translate(1868 386)"/><circle class="d" cx="1" cy="1" r="1" transform="translate(1883 380)"/><circle class="d" cx="1" cy="1" r="1" transform="translate(1840 365)"/><line class="f" x1="4" y2="4" transform="translate(1880 372)"/><line class="f" x1="3" y2="3" transform="translate(1871 369)"/><line class="f" x1="8" y2="8" transform="translate(1858 350)"/><line class="f" x1="8" y2="8" transform="translate(1858 355)"/><line class="f" x1="2" y2="2" transform="translate(1876 378)"/></g></g></svg>