<?xml version="1.0" encoding="utf-8"?>
<!-- Generator: Adobe Illustrator 17.0.0, SVG Export Plug-In . SVG Version: 6.00 Build 0)  -->
<!DOCTYPE svg PUBLIC "-//W3C//DTD SVG 1.1//EN" "http://www.w3.org/Graphics/SVG/1.1/DTD/svg11.dtd">
<svg version="1.1" id="圖層_1" xmlns="http://www.w3.org/2000/svg" xmlns:xlink="http://www.w3.org/1999/xlink" x="0px" y="0px"
	 width="24px" height="24px" viewBox="0.059 0.031 24 24" enable-background="new 0.059 0.031 24 24" xml:space="preserve">
<g>
	<path fill="#FFFFFF" d="M16.299,7.791c-1.123-1.128-2.649-1.761-4.24-1.76v6l-4.24,4.24c2.259,2.424,6.056,2.558,8.48,0.299
		s2.558-6.056,0.299-8.48C16.502,7.988,16.402,7.888,16.299,7.791z M12.059,2.031c-5.523,0-10,4.477-10,10s4.477,10,10,10
		s10-4.477,10-10S17.581,2.031,12.059,2.031z M12.059,20.031c-4.418,0-8-3.582-8-8s3.582-8,8-8s8,3.582,8,8
		S16.477,20.031,12.059,20.031z"/>
</g>
</svg>
