<svg xmlns="http://www.w3.org/2000/svg" width="173" height="30" viewBox="0 0 173 30"><defs><style>.a{fill:#fff;}.b{fill:#20552c;}.c{fill:none;}</style></defs><g transform="translate(-57 -743)"><g transform="translate(49 1)"><rect class="a" width="96" height="30" rx="8" transform="translate(85 742)"/><path class="b" d="M-15.789-3.172A2.953,2.953,0,0,1-16.9-.734,4.836,4.836,0,0,1-20,.156a7.275,7.275,0,0,1-3.234-.687v-2.25a13.329,13.329,0,0,0,1.957.727,5.791,5.791,0,0,0,1.465.211,2.083,2.083,0,0,0,1.223-.3,1.042,1.042,0,0,0,.426-.906,1,1,0,0,0-.187-.6,2.1,2.1,0,0,0-.551-.5,14.166,14.166,0,0,0-1.48-.773,7.017,7.017,0,0,1-1.57-.945,3.549,3.549,0,0,1-.836-1.055A3.01,3.01,0,0,1-23.1-8.336a2.952,2.952,0,0,1,1.027-2.383,4.269,4.269,0,0,1,2.84-.867,6.706,6.706,0,0,1,1.7.211,11.68,11.68,0,0,1,1.691.594L-16.625-8.9a11.43,11.43,0,0,0-1.512-.523,4.866,4.866,0,0,0-1.176-.148,1.557,1.557,0,0,0-1.055.32,1.057,1.057,0,0,0-.367.836,1.035,1.035,0,0,0,.148.559,1.632,1.632,0,0,0,.473.461,14.614,14.614,0,0,0,1.535.8,6.108,6.108,0,0,1,2.2,1.535A3,3,0,0,1-15.789-3.172ZM-11.3-6.047h.8a2.654,2.654,0,0,0,1.672-.441,1.545,1.545,0,0,0,.555-1.285,1.584,1.584,0,0,0-.465-1.258A2.178,2.178,0,0,0-10.2-9.437h-1.1Zm5.469-1.812A3.491,3.491,0,0,1-6.98-5.039a4.928,4.928,0,0,1-3.277.977H-11.3V0h-2.422V-11.422h3.648a4.853,4.853,0,0,1,3.16.895A3.262,3.262,0,0,1-5.828-7.859ZM2.523,0,1.7-2.719H-2.469L-3.3,0H-5.906l4.031-11.469H1.086L5.133,0ZM1.117-4.75Q-.031-8.445-.176-8.93T-.383-9.7q-.258,1-1.477,4.945ZM11.1-9.57A2.468,2.468,0,0,0,8.984-8.543a4.78,4.78,0,0,0-.75,2.863q0,3.82,2.867,3.82a9.063,9.063,0,0,0,2.914-.6V-.43a8.093,8.093,0,0,1-3.141.586A4.79,4.79,0,0,1,7.063-1.355,6.4,6.4,0,0,1,5.742-5.7a7.087,7.087,0,0,1,.648-3.121,4.687,4.687,0,0,1,1.863-2.055,5.512,5.512,0,0,1,2.848-.715,7.686,7.686,0,0,1,3.344.8l-.781,1.969a12.932,12.932,0,0,0-1.289-.531A3.846,3.846,0,0,0,11.1-9.57ZM23.023,0H16.445V-11.422h6.578v1.984H18.867V-6.93h3.867v1.984H18.867V-2h4.156Z" transform="translate(133 763)"/></g><path class="a" d="M5.73,0H2.156V-17.133h9.82v2.977H5.73v4.418h5.813v2.965H5.73ZM18.621,0H15.047V-18.234h3.574ZM20.5-13.1H24.41L26.883-5.73a10.227,10.227,0,0,1,.434,2.273h.07a10.046,10.046,0,0,1,.5-2.273L30.316-13.1h3.832L28.605,1.676a6.4,6.4,0,0,1-2.174,3.07,5.487,5.487,0,0,1-3.3,1.02,8.3,8.3,0,0,1-1.816-.2V2.73a6.11,6.11,0,0,0,1.406.152,2.54,2.54,0,0,0,1.658-.58A3.761,3.761,0,0,0,25.488.551L25.7-.094ZM35.52-1.676a1.965,1.965,0,0,1,.527-1.488,2.139,2.139,0,0,1,1.535-.5,2.078,2.078,0,0,1,1.506.516,1.959,1.959,0,0,1,.533,1.477,1.959,1.959,0,0,1-.539,1.459,2.04,2.04,0,0,1-1.5.533,2.1,2.1,0,0,1-1.523-.521A1.951,1.951,0,0,1,35.52-1.676Zm0-9.68a1.965,1.965,0,0,1,.527-1.488,2.139,2.139,0,0,1,1.535-.5,2.078,2.078,0,0,1,1.506.516,1.959,1.959,0,0,1,.533,1.477,1.939,1.939,0,0,1-.545,1.471,2.072,2.072,0,0,1-1.494.521,2.116,2.116,0,0,1-1.523-.516A1.947,1.947,0,0,1,35.52-11.355Z" transform="translate(85 767)"/><g transform="translate(57 746)"><path class="c" d="M0,0H24V24H0Z"/><path class="a" d="M15,7.5V2H9V7.5l3,3ZM7.5,9H2v6H7.5l3-3ZM9,16.5V22h6V16.5l-3-3ZM16.5,9l-3,3,3,3H22V9Z"/></g></g></svg>