<?xml version="1.0" encoding="utf-8"?>
<!-- Generator: Adobe Illustrator 17.0.0, SVG Export Plug-In . SVG Version: 6.00 Build 0)  -->
<!DOCTYPE svg PUBLIC "-//W3C//DTD SVG 1.1//EN" "http://www.w3.org/Graphics/SVG/1.1/DTD/svg11.dtd">
<svg version="1.1" id="圖層_1" xmlns="http://www.w3.org/2000/svg" xmlns:xlink="http://www.w3.org/1999/xlink" x="0px" y="0px"
	 width="359.077px" height="238.975px" viewBox="0 0 359.077 238.975" enable-background="new 0 0 359.077 238.975"
	 xml:space="preserve">
<path fill="#FFFFFF" d="M105.644,57.964c0-1.787,0.498-2.681,1.494-2.681c0.4-0.05,0.805,0.043,1.143,0.264
	c0.313,0.29,0.644,0.562,0.989,0.813c0.483,0.366,1.86,0.549,4.131,0.549c2.481-0.056,4.91-0.72,7.075-1.934
	c2.443-1.286,4.602-3.05,6.35-5.186c3.759-4.624,5.752-10.433,5.625-16.39c0.141-4.438-1.112-8.81-3.582-12.5
	c-2.028-3.22-5.581-5.159-9.387-5.122c-2.364-0.079-4.729,0.156-7.031,0.7l-16.607,81.17c-0.355,1.047-1.405,1.693-2.5,1.538
	c-1.347,0-2.021-0.483-2.021-1.45c0.006-0.304,0.05-0.607,0.132-0.9c0.088-0.337,0.264-1.164,0.527-2.483
	c0.645-3.311,2.835-13.88,6.57-31.707s6.907-32.527,9.514-44.1c-1.121,0.745-2.18,1.581-3.164,2.5
	c-0.067,0.659-0.4,1.263-0.923,1.67c-0.538,0.461-1.226,0.71-1.934,0.7l-1.1-0.264c-0.761-0.291-1.254-1.032-1.23-1.846
	c0-1.641,0.959-3.157,2.878-4.548c2.173-1.506,4.61-2.587,7.185-3.186c1.055-2.519,2.021-3.779,2.9-3.779
	c0.703,0,1.231,0.996,1.582,2.988c1.192-0.171,2.395-0.259,3.6-0.264c6.299,0,11.059,2.227,14.282,6.68
	c2.667,3.691,4,8.569,4,14.634c0,7.793-2.292,14.289-6.877,19.49s-10.993,7.801-19.226,7.8c-0.004,9.992,1.721,19.909,5.1,29.312
	c3.953,11.226,9.958,19.505,18.015,24.837c6.153,4.101,13.404,6.152,21.753,6.152c8.391-0.013,16.506-3.002,22.9-8.437
	c2.08-1.729,4.247-3.604,6.5-5.625c0.32-0.263,0.73-0.388,1.142-0.35c0.786-0.112,1.514,0.434,1.626,1.219
	c0.019,0.134,0.019,0.27,0,0.405c-0.018,0.663-0.265,1.299-0.7,1.8c-3.8,4.088-8.202,7.572-13.055,10.329
	c-6.056,3.196-12.82,4.813-19.666,4.7c-7.55-0.07-14.929-2.263-21.292-6.328c-12.421-7.675-20.61-20.594-24.565-38.758
	C106.284,73.003,105.562,65.49,105.644,57.964z M191.777,12.525c0.752-0.118,1.458,0.396,1.577,1.148
	c0.02,0.129,0.022,0.26,0.005,0.39c-0.141,1.123-0.468,2.214-0.967,3.23c-0.64,1.524-1.183,3.087-1.626,4.68
	c-0.439,1.582-1.018,3.911-1.736,6.987s-1.465,6.379-2.241,9.91c-0.777,3.533-1.577,7.173-2.4,10.92
	c-2.955,13.887-5.224,23.203-6.807,27.949c-1.143,3.664-2.568,7.235-4.263,10.679c-4.043,7.647-10.634,11.47-19.774,11.47
	c-4.544,0.161-8.925-1.708-11.953-5.1c-3.02-3.326-4.655-7.681-4.57-12.173c-0.041-1.772,0.211-3.539,0.747-5.229
	c1.025-5.8,1.985-11.33,2.878-16.589c0.893-5.259,2.093-12.012,3.6-20.259c1.509-8.247,3.581-17.132,6.218-26.653
	c0.376-0.75,1.102-1.261,1.934-1.362c1.289,0,1.934,0.513,1.934,1.538c-0.063,0.367-0.158,0.727-0.286,1.077
	c-0.133,0.366-0.258,0.725-0.374,1.077l-1.711,5.494c-1.289,6.24-2.923,14.846-4.9,25.818c-1.977,10.972-3.515,19.146-4.614,24.522
	c-0.884,3.775-1.435,7.621-1.648,11.492c-0.088,3.229,1.114,6.359,3.34,8.7c2.228,2.344,5.377,3.516,9.448,3.516
	c6.387,0,11.147-1.933,14.282-5.8c1.655-1.979,2.935-4.242,3.779-6.68l1.933-5.668c1.992-6.067,4.534-16.313,7.625-30.74
	c3.091-14.427,5.558-24.703,7.4-30.828c0.254-0.96,0.739-1.843,1.412-2.572C190.454,12.931,191.088,12.591,191.777,12.525z
	 M208.077,12.701c0.215-0.583,0.785-0.957,1.405-0.923c0.585-0.036,1.157,0.189,1.56,0.615c0.47,0.663,0.764,1.434,0.857,2.241
	c0.996,4.893,4.021,16.993,9.075,36.3s8.74,33.018,11.057,41.132c1.377-7.793,3.72-20.295,7.031-37.507s5.86-30.799,7.647-40.76
	c0.225-0.669,0.688-1.232,1.3-1.582c0.539-0.371,1.171-0.584,1.824-0.615c0.557,0,0.85,0.183,0.879,0.549
	c0.029,0.366,0.044,0.915,0.044,1.648c-3.721,17.959-7.031,35.112-9.932,51.46s-4.594,25.862-5.08,28.542
	c-0.222,1.512-0.538,3.009-0.945,4.482c-0.224,0.411-0.514,0.782-0.857,1.1c-0.46,0.438-1.079,0.669-1.714,0.637
	c-0.718,0-1.487-0.688-2.307-2.065c-1.248-2.79-2.191-5.707-2.812-8.7c-1.085-4.364-3.627-14.099-7.627-29.204
	s-7.157-27.476-9.47-37.112c-1.377,6.299-3.801,17.842-7.273,34.629s-6.452,30.308-8.941,40.562
	c-0.176,1.108-1.192,1.882-2.307,1.758c-1.273,0-1.909-0.542-1.909-1.626c0-0.351,1.018-4.724,3.054-13.118
	c2.036-8.394,5.061-22.42,9.075-42.078c4.012-19.658,6.136-29.78,6.371-30.366L208.077,12.701z M273.028,0.001
	c0.762,0,1.275,0.513,1.538,1.538c-0.182,3.214-0.563,6.414-1.143,9.58c-0.674,3.985-1.362,9.031-2.065,15.139
	s-2.049,14.435-4.039,24.982c-1.992,10.547-4.233,21.064-6.724,31.553c-0.37,1.067-1.37,1.788-2.5,1.8c-0.908,0-1.421-0.6-1.538-1.8
	c4.998-20.699,8.812-41.665,11.425-62.798c0.381-3.017,0.849-5.991,1.406-8.921c0.559-2.946,0.911-5.926,1.055-8.921
	c0.181-0.594,0.533-1.121,1.011-1.516c0.431-0.398,0.992-0.625,1.578-0.637L273.028,0.001z M255.146,101.074
	c-1.136-0.346-1.882-1.43-1.8-2.615c-0.011-1.282,0.581-2.495,1.6-3.274c0.854-0.791,1.958-1.257,3.12-1.318
	c0.887-0.055,1.746,0.321,2.307,1.011c0.549,0.742,0.828,1.649,0.791,2.571c-0.093,1.339-0.523,2.632-1.25,3.76
	c-0.58,1.3-1.851,2.154-3.274,2.2c-0.443,0.022-0.875-0.146-1.187-0.461c-0.275-0.265-0.433-0.629-0.439-1.011
	C255.001,101.643,255.046,101.35,255.146,101.074z M8.346,237.174c0-0.586,0.059-1.436,0.176-2.549
	c-0.849-0.176-1.714-0.337-2.593-0.483c-3.809-0.615-5.772-1.509-5.889-2.681c-0.036-0.24-0.051-0.483-0.044-0.725
	c0.033-0.415,0.212-0.805,0.505-1.1c0.221-0.329,0.574-0.545,0.967-0.593c0.319,0.002,0.637,0.046,0.945,0.132
	c0.41,0.147,1.135,0.462,2.175,0.945c1.42,0.551,2.939,0.798,4.46,0.725c6.68-32.871,13.169-58.697,19.468-77.476
	c-3.486,1.147-6.821,2.711-9.932,4.658c-0.307,0.13-0.634,0.205-0.967,0.22c-1.025,0-1.538-0.542-1.538-1.626
	c-0.023-0.834,0.395-1.619,1.1-2.065c4.057-2.557,8.45-4.539,13.052-5.889c0.36-0.639,1.006-1.065,1.736-1.143
	c0.45-0.06,0.901,0.104,1.208,0.439c3.111-0.676,6.287-1,9.47-0.967c3.389-0.026,6.738,0.742,9.778,2.241
	c8.525,4.248,12.788,13.667,12.788,28.257c0,16.846-4.204,30.41-12.612,40.693c-5.982,7.189-14.067,12.322-23.117,14.679
	c-5.275,1.4-10.715,2.08-16.172,2.021h-0.571c-0.205,1.963-0.674,3.208-1.406,3.735c-0.376,0.25-0.823,0.374-1.274,0.352
	c-1.14,0.001-1.71-0.6-1.71-1.801L8.346,237.174z M60.992,178.551c0-18.164-6.841-27.246-20.522-27.246
	c-2.575-0.028-5.144,0.267-7.646,0.879c-5.067,15.879-9.886,34.306-14.458,55.283c-1.582,7.236-3.237,15.088-4.966,23.555
	c10.488,0,19.306-2.367,26.455-7.1c7.064-4.631,12.605-11.242,15.93-19.006c3.552-8.331,5.326-17.311,5.211-26.366L60.992,178.551z
	 M73.256,234.009c-3.428,0-5.142-2.153-5.142-6.46c0-4.307,1.604-9.587,4.812-15.842c2.974-5.921,6.785-11.382,11.316-16.216
	c4.333-4.555,7.871-6.833,10.613-6.833s4.302,1.2,4.68,3.6c0.117,0.733,0.205,1.51,0.264,2.329c0.288-0.183,0.625-0.275,0.967-0.264
	c1.377,0,2.065,0.659,2.065,1.978v0.352c0,0.088-0.367,1.406-1.1,3.955c-1.064,4.199-1.899,8.454-2.5,12.744
	c-0.857,5.04-1.327,10.138-1.406,15.249c0.267,0.176,0.574,0.374,0.923,0.593c0.463,0.305,0.904,0.643,1.318,1.011
	c0.493,0.385,0.784,0.974,0.791,1.6c0.006,0.599-0.196,1.181-0.571,1.648c-0.394,0.49-0.999,0.759-1.626,0.725
	c-1.573-0.073-3.017-0.89-3.889-2.2c-1.11-1.334-1.723-3.011-1.736-4.746c0-3.662,0.996-9.962,2.988-18.9
	c-2.605,5.395-5.851,10.455-9.668,15.073c-3.955,4.834-6.689,7.808-8.2,8.921C76.751,233.409,75.029,234,73.256,234.009z
	 M72.597,227.725c0,1.084,0.454,1.626,1.362,1.626c0.61,0.014,1.198-0.224,1.626-0.659c6.067-5.215,11.5-12.436,16.3-21.665
	c2.725-5.273,4.168-8.307,4.329-9.1c0.147-0.664,0.228-1.341,0.242-2.021c0-0.557-0.152-1.104-0.439-1.582
	c-0.235-0.463-0.711-0.752-1.23-0.747c-0.829,0.1-1.625,0.386-2.329,0.835c-2.256,1.231-5.032,3.853-8.328,7.866
	c-3.288,4.002-6.057,8.403-8.24,13.1C73.695,220.093,72.597,224.209,72.597,227.725z M137.768,198.409
	c0-2.901-0.791-4.351-2.373-4.351c-2.109,0-6.138,6.05-12.085,18.149c-2.695,5.479-4.578,9.617-5.647,12.415
	c-1.069,2.798-1.869,4.768-2.4,5.911c-0.398,0.932-0.923,1.805-1.56,2.593c-0.411,0.535-1.04,0.858-1.714,0.879
	c-0.63,0-1.004-0.154-1.121-0.461c-0.146-0.544-0.206-1.108-0.176-1.67c0-0.805,1.179-7.719,3.538-20.742s3.721-19.871,4.087-20.544
	c0.228-0.502,0.566-0.946,0.989-1.3c0.495-0.231,1.043-0.327,1.587-0.279c0.704-0.029,1.375,0.302,1.78,0.879
	c0.369,0.442,0.591,0.987,0.637,1.56c0,0.452-0.059,0.903-0.176,1.34c-0.205,0.791-0.513,1.773-0.923,2.944
	c-1.784,5.571-3.136,11.272-4.043,17.051l-0.923,5.317c0.674-1.406,1.436-3.098,2.285-5.076s2.109-4.811,3.779-8.5
	c1.542-3.466,3.411-6.777,5.581-9.888c2.637-3.809,5.098-5.713,7.383-5.713c4.014,0,6.021,3.237,6.021,9.712
	c-0.068,3.058-0.414,6.104-1.033,9.1c-0.689,3.633-1.45,7.602-2.285,11.909c-0.736,3.519-1.199,7.089-1.384,10.679l-0.527,2.417
	c0.038,0.479-0.061,0.959-0.286,1.384c-0.191,0.278-0.762,0.417-1.714,0.417c-0.729,0.061-1.457-0.126-2.065-0.532
	c-0.468-0.509-0.628-1.231-0.417-1.89l4.395-26.279C137.425,203.386,137.689,200.902,137.768,198.409z M176.923,192.609l4.307-18.9
	c0.293-1.347,1.003-4.826,2.131-10.437s1.956-9.512,2.483-11.704l0.176-1.1c-0.014-0.729,0.262-1.434,0.769-1.959
	c0.395-0.484,0.976-0.779,1.6-0.813c1.289,0,1.934,0.688,1.934,2.065v0.4c0,1.435-1.033,6.899-3.1,16.392
	c-2.067,9.493-3.405,16.172-4.015,20.039c-0.615,3.867-1.78,9.272-3.494,16.216c-1.714,6.944-2.791,11.631-3.232,14.062
	c-0.439,2.431-0.864,4.489-1.274,6.174c-0.405,1.647-0.612,3.336-0.615,5.032c0.007,1.715,0.274,3.419,0.791,5.054
	c-0.083,0.695-0.429,1.332-0.967,1.78c-0.41,0.418-0.955,0.675-1.538,0.725c-0.762,0-1.421-0.9-1.978-2.7
	c-0.496-1.46-0.778-2.985-0.835-4.526c0.027-1.443,0.203-2.879,0.527-4.285c-0.848,3.038-2.45,5.812-4.658,8.064
	c-2.068,1.803-4.752,2.74-7.493,2.615c-2.765,0.189-5.37-1.312-6.592-3.8c-1.241-2.29-1.912-4.845-1.956-7.449
	c0-8.965,1.7-16.553,5.1-22.764c1.176-2.263,2.584-4.399,4.2-6.372c1.38-1.517,2.954-2.847,4.68-3.955
	c2.103-1.315,4.551-1.974,7.031-1.89C173.568,188.493,175.986,190.115,176.923,192.609z M173.671,206.759
	c0.467-2.4,0.767-3.931,0.9-4.592c0.161-1.076,0.228-2.164,0.2-3.252c-0.017-1.567-0.473-3.097-1.318-4.417
	c-0.745-1.359-2.186-2.189-3.735-2.153c-2.871,0-5.501,1.809-7.888,5.427c-2.521,3.912-4.447,8.177-5.713,12.656
	c-1.276,3.947-1.995,8.053-2.135,12.199c0,3.311,0.938,5.669,2.813,7.075c0.72,0.499,1.586,0.745,2.461,0.7
	c2.08,0,4.307-1.772,6.68-5.317c2.155-3.13,3.939-6.5,5.317-10.042c1.039-2.687,1.848-5.456,2.418-8.28V206.759z M209.482,226.626
	c1.025,0,1.538,0.542,1.538,1.626c0,1.26-1.538,2.681-4.614,4.263s-5.639,2.373-7.69,2.373c-1.603,0.106-3.203-0.244-4.614-1.011
	c-1.057-0.712-1.917-1.679-2.5-2.812c-1.325-2.626-1.975-5.541-1.89-8.481c-0.037-5.63,0.854-11.227,2.637-16.567
	c1.496-4.711,3.882-9.09,7.031-12.9c2.93-3.413,6.094-5.12,9.492-5.12c1.726-0.048,3.351,0.81,4.285,2.263
	c1.06,1.575,1.605,3.441,1.56,5.339c0.107,3.496-0.952,6.928-3.01,9.756c-1.999,2.66-4.516,4.887-7.4,6.548
	c-3.248,1.852-6.626,3.468-10.107,4.834l-0.176,6.46c0,5.039,1.523,7.559,4.57,7.559c1.812-0.046,3.586-0.536,5.164-1.428
	c1.8-0.952,3.096-1.64,3.889-2.065C208.203,226.915,208.83,226.697,209.482,226.626z M210.582,195.776
	c0-2.344-0.981-3.516-2.944-3.516c-1.758,0-3.825,1.582-6.2,4.746c-2.678,3.8-4.671,8.038-5.889,12.524
	c-0.307,0.93-0.528,1.886-0.659,2.856c1.172-0.645,2.372-1.26,3.6-1.846c1.228-0.586,2.428-1.201,3.6-1.846
	c2.441-1.279,4.577-3.07,6.262-5.251C209.908,201.197,210.69,198.507,210.582,195.776L210.582,195.776z M233.082,228.515
	c0.962-0.132,1.849,0.541,1.981,1.503c0.023,0.165,0.022,0.333-0.003,0.497c0,1.333-0.872,2.367-2.615,3.1
	c-1.899,0.762-3.931,1.136-5.977,1.1c-2.241,0-3.889-0.6-4.944-1.8c-1.06-1.215-1.625-2.783-1.582-4.395
	c-0.008-1.594,0.087-3.187,0.286-4.768c0.191-1.45,0.52-3.464,0.989-6.042c0.469-2.578,1.011-5.478,1.626-8.7
	c0.615-3.223,1.304-6.68,2.065-10.371c0.761-3.691,1.539-7.458,2.333-11.3c0.791-3.838,1.591-7.647,2.4-11.426
	c0.809-3.779,1.578-7.376,2.307-10.789c0.733-3.413,1.407-6.547,2.021-9.4s1.127-5.263,1.538-7.229
	c0.224-0.91,1.09-1.513,2.021-1.406c1.26,0,1.89,0.688,1.89,2.065v1.143c-1.143,5.479-2.271,10.812-3.384,16
	c-1.113,5.188-3.012,14.18-5.695,26.975c-2.681,12.8-4.409,21.457-5.186,25.972c-0.532,2.688-0.921,5.401-1.165,8.13
	c-0.01,0.878,0.285,1.733,0.835,2.417c0.445,0.645,1.173,1.037,1.956,1.055c0.699,0.009,1.393-0.118,2.043-0.374
	c0.615-0.249,1.215-0.513,1.8-0.791c0.585-0.278,1.112-0.542,1.582-0.791c0.271-0.171,0.567-0.297,0.878-0.374V228.515z
	 M256.245,173.54c1.253-0.179,2.414,0.692,2.593,1.945c0.031,0.215,0.031,0.433,0,0.648c0,2.519-0.879,3.94-2.637,4.263
	c-0.537,0.091-1.081,0.135-1.626,0.132c-0.68-0.044-1.314-0.361-1.758-0.879c-0.592-0.601-0.91-1.42-0.879-2.263
	c0.052-1.028,0.549-1.983,1.362-2.615C254.088,174,255.142,173.559,256.245,173.54z M250.045,194.062v-0.879
	c-0.124-1.015-0.345-2.015-0.659-2.988c0.001-0.735,0.266-1.445,0.747-2c0.434-0.569,1.109-0.902,1.824-0.9
	c0.81,0.063,1.507,0.597,1.78,1.362c0.472,0.925,0.712,1.95,0.7,2.988c0,1.084-1.377,7.559-4.131,19.424s-4.129,18.112-4.124,18.74
	c0,0.63,0.293,0.945,0.879,0.945c0.381,0,0.923-0.374,1.626-1.121c0.433-0.592,1.078-0.993,1.8-1.121c0.967,0,1.45,0.608,1.45,1.824
	s-0.908,2.278-2.725,3.186c-1.214,0.715-2.559,1.178-3.955,1.362c-2.051,0-3.076-1.641-3.076-4.922
	c0.017-0.772,0.158-1.536,0.417-2.263c0.358-1.139,0.653-2.297,0.884-3.468c0.307-1.479,0.747-3.493,1.318-6.042
	c0.571-2.549,1.157-5.185,1.758-7.91c0.6-2.725,1.333-6.028,2.2-9.91s1.297-5.984,1.29-6.306L250.045,194.062z M281.945,188.569
	c5.537,0,8.306,4.189,8.306,12.568c0,6.533-1.802,13.55-5.405,21.05c-2.431,5.039-5.361,8.673-8.789,10.9
	c-1.608,1.096-3.503,1.692-5.449,1.714c-3.311,0-5.684-1.318-7.119-3.955c-1.429-2.613-2.17-5.547-2.153-8.525
	c-0.007-5.407,0.922-10.774,2.747-15.864c1.595-4.726,4.137-9.078,7.471-12.788c3.152-3.399,6.618-5.099,10.399-5.099
	L281.945,188.569z M270.175,203.115c-3.012,5.725-4.638,12.077-4.746,18.545c0,4.189,1.157,7.002,3.472,8.438
	c0.726,0.446,1.565,0.674,2.417,0.659c1.875,0,3.97-1.626,6.284-4.878c2.532-3.695,4.502-7.745,5.845-12.019
	c1.429-3.937,2.23-8.075,2.373-12.261c0-3.413-0.198-5.574-0.593-6.482c-0.272-0.743-0.743-1.397-1.362-1.89
	c-0.782-0.414-1.667-0.597-2.549-0.527c-1.407,0.076-2.76,0.567-3.89,1.409C274.701,195.865,272.284,198.867,270.175,203.115z
	 M323.613,198.415c0-2.901-0.791-4.351-2.373-4.351c-2.109,0-6.138,6.05-12.085,18.149c-2.695,5.479-4.578,9.617-5.647,12.415
	c-1.069,2.798-1.869,4.768-2.4,5.911c-0.398,0.932-0.923,1.805-1.56,2.593c-0.411,0.535-1.04,0.858-1.714,0.879
	c-0.63,0-1.004-0.154-1.121-0.461c-0.146-0.544-0.206-1.108-0.176-1.67c0-0.805,1.179-7.719,3.538-20.742s3.721-19.871,4.087-20.544
	c0.228-0.502,0.566-0.946,0.989-1.3c0.495-0.233,1.042-0.331,1.587-0.285c0.704-0.029,1.375,0.302,1.78,0.879
	c0.369,0.442,0.591,0.987,0.637,1.56c0,0.452-0.059,0.903-0.176,1.34c-0.205,0.791-0.513,1.773-0.923,2.944
	c-1.784,5.571-3.136,11.272-4.043,17.051l-0.923,5.317c0.674-1.406,1.436-3.098,2.285-5.076s2.109-4.811,3.779-8.5
	c1.542-3.466,3.411-6.777,5.581-9.888c2.637-3.809,5.098-5.713,7.383-5.713c4.014,0,6.021,3.237,6.021,9.712
	c-0.068,3.058-0.414,6.104-1.033,9.1c-0.689,3.633-1.45,7.602-2.285,11.909c-0.736,3.519-1.199,7.089-1.384,10.679l-0.527,2.417
	c0.038,0.479-0.061,0.959-0.286,1.384c-0.191,0.278-0.762,0.417-1.714,0.417c-0.728,0.063-1.456-0.123-2.065-0.527
	c-0.468-0.509-0.628-1.231-0.417-1.89l4.395-26.279c0.447-2.456,0.711-4.941,0.79-7.436V198.415z M357.539,135.002
	c0.762,0,1.275,0.513,1.538,1.538c-0.182,3.214-0.563,6.414-1.143,9.58c-0.674,3.985-1.362,9.031-2.065,15.139
	c-0.703,6.108-2.05,14.436-4.043,24.983c-1.992,10.547-4.233,21.064-6.724,31.553c-0.37,1.067-1.37,1.788-2.5,1.8
	c-0.908,0-1.421-0.6-1.538-1.8c4.995-20.7,8.808-41.667,11.418-62.8c0.381-3.017,0.849-5.991,1.406-8.921
	c0.559-2.946,0.911-5.926,1.055-8.921c0.181-0.594,0.533-1.121,1.011-1.516c0.432-0.4,0.996-0.626,1.585-0.637V135.002z
	 M339.653,236.074c-1.136-0.346-1.882-1.43-1.8-2.615c-0.011-1.282,0.581-2.495,1.6-3.274c0.854-0.791,1.958-1.257,3.12-1.318
	c0.887-0.055,1.746,0.321,2.307,1.011c0.549,0.742,0.828,1.649,0.791,2.571c-0.094,1.338-0.524,2.63-1.252,3.757
	c-0.58,1.3-1.851,2.154-3.274,2.2c-0.443,0.022-0.875-0.146-1.187-0.461c-0.275-0.265-0.433-0.629-0.439-1.011
	C339.507,236.641,339.552,236.349,339.653,236.074z"/>
</svg>
